<?xml version="1.0" standalone="no"?>
<!DOCTYPE svg PUBLIC "-//W3C//DTD SVG 20010904//EN"
 "http://www.w3.org/TR/2001/REC-SVG-20010904/DTD/svg10.dtd">
<svg version="1.0" xmlns="http://www.w3.org/2000/svg"
 width="1280.000000pt" height="640.000000pt" viewBox="0 0 1280.000000 640.000000"
 preserveAspectRatio="xMidYMid meet">
<metadata>
Created by potrace 1.15, written by Peter Selinger 2001-2017
</metadata>
<g transform="translate(0.000000,640.000000) scale(0.100000,-0.100000)"
fill="#000000" stroke="none">
<path d="M7743 5953 c-10 -3 -11 -32 -7 -111 8 -161 14 -213 26 -206 6 4 9 56
6 142 -3 116 -1 136 13 145 9 6 24 7 33 4 13 -5 16 -22 16 -96 0 -94 -10 -137
-37 -156 -13 -10 -4 -13 47 -18 35 -4 90 -7 124 -8 83 -1 109 -10 124 -42 7
-15 17 -25 21 -23 4 3 11 52 14 108 4 57 12 129 18 162 13 72 6 81 -70 96 -54
10 -305 13 -328 3z m161 -135 c-4 -62 -11 -122 -17 -132 -9 -18 -10 -18 -19
-2 -5 10 -12 69 -15 132 l-6 114 32 0 31 0 -6 -112z m195 87 c12 -11 12 -29 1
-112 -17 -135 -10 -125 -82 -117 -77 8 -98 18 -98 47 0 36 21 190 27 200 8 13
135 -2 152 -18z"/>
<path d="M7631 5604 c-44 -19 -34 -29 16 -15 50 14 90 14 77 1 -6 -6 -34 -13
-62 -17 -63 -7 -68 -21 -9 -25 37 -3 42 -6 39 -25 -2 -14 4 -26 17 -33 29 -15
26 -31 -11 -61 -21 -18 -29 -31 -25 -43 8 -21 32 -30 55 -21 14 6 13 9 -11 19
l-28 13 35 27 c38 28 46 53 22 62 -19 7 -29 34 -17 48 10 12 91 9 91 -3 0 -4
-11 -13 -25 -19 -32 -15 -34 -37 -2 -27 12 3 32 9 45 12 15 4 21 11 18 20 -5
11 2 14 32 11 29 -2 40 -9 50 -31 11 -22 19 -28 37 -24 37 7 52 -8 24 -24
l-24 -13 30 -6 c25 -4 29 -10 26 -30 -1 -13 -12 -35 -22 -49 -23 -29 -24 -41
-4 -41 38 0 73 118 43 148 -9 9 -8 12 5 12 30 0 38 -34 31 -135 -9 -127 9
-126 27 3 8 53 13 107 12 119 -2 21 2 23 60 20 50 -2 62 1 65 14 2 12 -16 25
-62 47 -82 39 -140 50 -304 58 -73 4 -135 11 -138 15 -8 14 -75 10 -113 -7z
m399 -44 c70 -11 160 -40 160 -51 0 -4 -17 -3 -37 2 -91 22 -191 39 -233 40
-25 0 -54 4 -65 9 -29 13 95 12 175 0z"/>
<path d="M7817 5473 c-14 -13 -6 -33 12 -33 27 0 46 26 25 34 -20 8 -29 8 -37
-1z"/>
<path d="M7724 5334 c4 -9 1 -23 -5 -30 -8 -10 -8 -18 -1 -27 6 -6 12 -28 14
-47 2 -23 10 -38 24 -45 l21 -10 -23 -18 c-14 -10 -26 -32 -29 -55 -12 -76
-15 -82 -42 -88 -22 -6 -24 -9 -11 -18 10 -7 17 -35 20 -80 5 -63 3 -74 -18
-105 -45 -67 -22 -72 25 -6 38 53 133 131 264 217 51 33 107 74 126 92 19 18
35 26 38 20 2 -7 28 -44 58 -85 30 -40 55 -76 55 -79 0 -4 -19 -10 -42 -14
-41 -7 -98 -34 -98 -48 0 -4 20 2 45 13 52 23 104 18 132 -13 14 -16 18 -41
21 -127 4 -98 1 -115 -27 -202 -17 -52 -38 -125 -47 -164 -26 -110 -74 -205
-125 -249 -24 -21 -120 -85 -213 -143 -172 -106 -185 -110 -186 -59 0 27 -36
99 -64 129 l-24 26 117 75 c73 48 126 76 144 76 20 0 27 5 27 19 0 11 -3 22
-8 24 -14 9 -82 -21 -125 -55 -23 -18 -75 -53 -115 -77 -40 -24 -79 -53 -87
-64 -9 -14 -21 -18 -37 -14 -26 7 -111 -20 -154 -48 -21 -14 -44 -17 -98 -16
-39 1 -72 4 -74 6 -2 1 39 29 90 60 115 72 168 112 168 131 0 25 -20 15 -115
-56 -76 -57 -206 -140 -220 -140 -2 0 -11 21 -19 48 -9 26 -28 67 -41 91 -14
24 -24 44 -23 45 28 11 214 123 256 154 18 14 35 35 38 48 3 13 20 32 38 42
21 12 44 42 64 82 53 102 104 191 108 187 2 -2 -5 -30 -17 -63 -15 -41 -20
-79 -19 -126 5 -165 3 -207 -15 -273 -10 -38 -29 -87 -43 -108 -42 -68 -8 -88
36 -22 44 68 61 201 53 408 -1 29 7 83 19 122 25 86 25 92 0 105 -17 9 -23 5
-47 -32 -14 -24 -47 -81 -71 -128 -52 -98 -73 -124 -113 -140 -22 -9 -29 -19
-29 -39 0 -22 -10 -33 -57 -60 -32 -19 -80 -47 -108 -64 -121 -73 -150 -87
-193 -87 -23 0 -61 -9 -84 -21 -23 -12 -52 -19 -67 -16 -14 2 -136 34 -271 70
-135 36 -369 98 -520 137 -151 39 -394 105 -540 145 -146 41 -386 106 -535
145 -148 39 -386 102 -527 140 -142 39 -374 101 -515 139 -385 104 -587 152
-748 176 -60 9 -164 25 -230 36 -367 59 -828 34 -860 -48 -11 -30 7 -31 49 -2
45 32 79 43 191 59 83 13 438 -3 585 -25 52 -8 122 -17 155 -20 113 -12 416
-76 588 -124 95 -27 264 -74 377 -105 113 -31 320 -88 460 -126 140 -39 343
-93 450 -121 107 -28 321 -86 475 -129 154 -43 404 -113 555 -155 151 -42 356
-99 455 -127 99 -27 222 -61 274 -74 52 -13 96 -25 97 -27 1 -1 4 -20 6 -42
l3 -40 -71 -7 c-69 -7 -500 -17 -1639 -38 -308 -5 -751 -15 -985 -21 -584 -15
-1515 -22 -1630 -12 -83 7 -95 10 -95 26 0 40 -91 78 -110 46 -5 -7 -14 -4
-26 7 -28 25 -35 9 -14 -29 l18 -34 -34 -67 c-63 -124 -39 -114 -314 -136
-352 -29 -578 -48 -773 -66 -135 -12 -177 -12 -188 -3 -11 9 -18 8 -34 -6 -20
-18 -40 -13 -40 11 0 24 45 63 67 58 14 -4 25 3 37 20 9 14 24 26 32 26 9 0
37 23 64 50 32 33 56 50 73 50 33 0 99 50 134 102 35 52 57 56 61 10 5 -51 25
-33 43 39 22 88 33 169 20 149 -6 -8 -11 -23 -11 -32 0 -23 -19 -72 -26 -65
-3 3 -12 72 -19 154 -17 173 -21 193 -39 193 -20 0 -27 25 -15 59 6 16 9 42 7
58 -4 29 -7 25 -24 -32 -8 -25 -15 -30 -39 -30 -24 0 -33 7 -45 31 -8 17 -24
35 -35 41 -11 6 -68 36 -126 67 -59 31 -109 56 -113 56 -3 0 -6 -8 -6 -19 0
-10 -18 -45 -40 -77 -34 -51 -45 -60 -77 -64 -34 -5 -41 -11 -85 -85 -52 -88
-67 -138 -49 -166 17 -28 14 -40 -29 -134 -22 -48 -40 -91 -40 -95 0 -5 22
-21 50 -37 27 -15 50 -31 50 -35 0 -11 -2 -10 -41 6 -72 29 -77 29 -84 -1 -10
-42 -78 -176 -92 -180 -15 -5 -29 47 -43 165 l-11 94 36 39 c52 58 47 130 -9
128 -20 0 -20 -1 1 -16 41 -28 22 -103 -26 -103 -26 0 -41 21 -41 57 0 37 -10
42 -27 14 -9 -14 -29 -21 -83 -26 -64 -6 -75 -5 -101 14 -15 11 -35 21 -43 21
-9 0 -20 9 -26 20 -10 18 -6 26 25 57 28 28 38 33 49 23 12 -9 17 -7 24 7 11
20 38 151 48 231 4 28 11 52 16 52 12 0 33 -53 54 -133 15 -62 15 -70 0 -116
-20 -62 -20 -61 3 -61 11 0 23 -4 26 -10 3 -5 10 -10 16 -10 13 0 11 44 -3 58
-6 6 -10 36 -9 70 2 47 -4 71 -31 128 -17 38 -39 89 -48 112 -8 24 -19 45 -24
45 -5 1 -16 -20 -25 -46 -13 -38 -19 -45 -29 -35 -20 20 -30 -2 -42 -101 -6
-51 -15 -102 -20 -112 -6 -10 -10 -26 -10 -36 0 -10 -14 -37 -30 -61 -34 -50
-57 -144 -44 -181 5 -15 20 -28 34 -31 23 -5 25 -11 26 -63 1 -40 -3 -62 -13
-73 -12 -12 -14 -30 -11 -79 6 -74 14 -91 33 -75 23 19 45 -27 45 -95 0 -43 7
-75 25 -113 14 -30 25 -64 25 -77 0 -13 8 -31 17 -40 16 -17 47 -16 111 1 12
4 22 2 22 -3 0 -5 -27 -14 -59 -21 -75 -16 -89 -31 -68 -75 25 -51 38 -126 32
-171 -5 -34 -3 -46 15 -66 18 -21 20 -22 14 -5 -4 11 -9 55 -11 99 -2 43 -10
94 -18 113 -20 47 -19 71 3 77 48 14 135 27 146 23 8 -3 17 -22 20 -42 6 -32
4 -42 -18 -64 -49 -51 -26 -94 86 -164 31 -19 53 -77 44 -118 -5 -25 -3 -29
18 -29 35 0 36 8 10 63 -13 29 -24 62 -24 74 0 13 -17 39 -39 60 -47 45 -57
72 -36 99 15 19 15 19 31 -1 8 -11 18 -32 21 -47 7 -36 23 -26 23 14 0 23 -9
39 -31 57 -31 27 -33 34 -54 212 -4 27 -16 60 -31 80 l-26 34 7 -77 7 -78 -27
-10 c-15 -6 -54 -11 -87 -13 l-60 -2 -13 40 c-6 22 -22 59 -35 83 -18 34 -20
45 -10 57 7 8 20 15 29 15 31 1 145 46 149 60 3 9 -2 11 -19 6 -144 -40 -151
-40 -168 2 -15 39 -30 112 -31 149 0 27 5 33 33 42 49 15 124 24 150 17 31 -7
46 -42 53 -129 6 -68 20 -115 30 -104 4 4 -1 41 -36 281 -8 49 -8 72 0 80 17
17 27 -7 34 -83 11 -108 44 -288 61 -327 9 -22 13 -50 10 -68 -5 -26 -1 -36
29 -65 39 -38 50 -24 16 19 -11 14 -20 36 -20 50 0 14 -9 54 -20 89 l-20 64
29 61 c16 34 41 87 55 120 24 55 27 58 53 51 55 -13 228 -111 232 -131 2 -10
17 -31 35 -45 l31 -27 -31 -43 c-35 -49 -74 -61 -109 -34 -16 13 -18 19 -7 35
17 28 15 40 -8 40 -18 0 -20 4 -14 35 5 28 3 35 -10 35 -13 0 -16 -11 -16 -49
0 -37 -5 -53 -18 -63 -32 -22 -45 -58 -39 -107 7 -64 -26 -135 -66 -139 -42
-5 -27 -27 19 -27 21 0 47 -4 58 -9 12 -6 26 -5 39 4 17 10 23 10 34 -6 7 -10
13 -24 13 -32 0 -7 4 -10 10 -7 5 3 10 21 10 39 0 19 7 39 15 46 8 7 17 27 21
46 8 44 20 52 85 60 l55 6 62 -98 c60 -95 72 -127 53 -138 -7 -5 -180 -30
-426 -62 -23 -3 -31 -10 -33 -27 -5 -70 -2 -108 12 -134 8 -17 13 -41 10 -54
-5 -23 -5 -23 10 -5 19 24 19 34 1 66 -16 28 -20 76 -6 84 5 3 78 15 162 26
241 30 577 97 668 131 l25 10 -29 19 c-22 14 -33 16 -54 8 -38 -14 -216 -48
-256 -48 -29 0 -37 5 -51 32 -9 18 -33 56 -52 85 -19 28 -32 57 -30 64 10 31
169 56 596 94 158 14 315 28 350 31 95 10 96 12 -123 -239 -38 -44 -104 -108
-147 -141 -42 -34 -73 -65 -69 -69 13 -13 48 9 130 82 90 81 231 248 268 317
25 48 30 52 71 58 83 11 105 7 145 -29 45 -39 51 -21 -61 -197 -81 -126 -97
-158 -83 -158 4 0 17 10 28 23 30 32 152 233 179 293 29 66 48 73 199 67 186
-6 182 -5 189 -61 4 -26 25 -88 47 -139 47 -108 86 -234 95 -307 8 -62 32
-111 73 -150 29 -28 31 -34 31 -102 0 -63 3 -76 23 -94 20 -20 21 -22 5 -31
-10 -6 -18 -21 -18 -34 0 -13 -8 -30 -19 -37 -10 -7 -26 -40 -35 -73 -30 -103
-116 -311 -145 -352 l-29 -40 -73 9 c-41 5 -111 18 -157 28 -92 22 -138 26
-111 10 37 -22 237 -72 292 -73 l61 -2 34 60 c36 64 108 235 137 325 19 61 30
77 39 62 9 -15 -10 -94 -40 -169 -20 -50 -23 -67 -14 -78 6 -8 9 -19 5 -25 -9
-14 11 -13 22 3 19 22 45 116 38 136 -3 11 -3 36 1 56 9 49 38 62 87 41 31
-12 37 -20 37 -44 0 -40 -22 -56 -66 -49 l-37 6 23 -24 c20 -21 21 -27 10 -60
-6 -19 -23 -43 -36 -52 -14 -9 -24 -25 -24 -40 0 -33 -34 -97 -65 -121 -27
-21 -34 -62 -11 -62 7 0 19 7 26 15 10 12 38 15 134 14 203 0 418 34 561 91
157 62 118 64 -102 6 -183 -49 -294 -66 -431 -69 -138 -2 -135 -8 -62 113 28
46 63 116 78 156 25 68 29 73 62 79 19 4 40 11 47 16 8 7 102 -25 295 -99 156
-60 345 -129 421 -152 75 -24 137 -47 137 -52 0 -4 23 -49 51 -98 55 -97 93
-203 104 -292 8 -63 -12 -202 -51 -361 -31 -124 -51 -170 -107 -245 -25 -34
-55 -83 -68 -109 -13 -26 -53 -87 -91 -134 -96 -122 -94 -122 -377 -115 l-226
4 245 -12 c135 -7 258 -18 273 -24 35 -15 226 -16 263 -2 52 20 92 97 73 141
-14 34 -5 61 33 105 21 24 39 34 58 34 36 0 60 32 60 81 0 49 26 195 51 294
12 44 27 107 34 140 7 33 16 74 20 90 7 27 6 29 -8 15 -29 -28 -100 -299 -122
-469 -14 -106 -25 -127 -56 -110 -25 13 -27 12 -44 -21 -9 -17 -31 -38 -50
-47 -40 -19 -52 -43 -31 -58 9 -7 13 -20 9 -33 -3 -13 -1 -22 6 -22 19 0 12
-55 -9 -78 -11 -12 -39 -26 -62 -33 -43 -11 -181 -9 -193 3 -4 4 28 48 70 100
43 51 85 109 94 128 9 19 21 40 27 45 15 14 91 145 104 179 22 59 88 344 99
426 15 118 -4 195 -94 383 -20 43 -35 80 -33 82 2 2 58 -11 123 -29 l120 -33
23 -44 c54 -105 95 -164 321 -459 69 -90 83 -114 96 -172 21 -93 20 -104 -24
-273 -64 -243 -97 -322 -187 -447 -27 -37 -56 -80 -65 -96 l-16 -29 -514 2
-514 3 415 -8 c228 -4 450 -8 493 -9 42 0 77 -5 77 -10 0 -5 -28 -38 -62 -75
l-62 -66 -325 -2 -326 -3 310 -2 c170 -2 313 -7 318 -12 4 -4 -6 -20 -22 -34
-17 -14 -27 -28 -22 -31 45 -28 321 -49 373 -28 17 7 52 61 84 131 11 24 13
41 7 55 -17 38 12 110 60 150 23 19 51 44 63 54 16 14 26 47 43 138 39 210 72
309 172 511 50 100 69 148 64 163 -4 11 -23 42 -43 68 -33 44 -101 176 -117
232 -9 27 -7 26 66 -32 19 -14 70 -48 114 -75 104 -64 138 -110 143 -198 5
-69 -12 -289 -30 -395 -5 -36 -19 -85 -29 -110 -10 -25 -27 -76 -38 -115 -13
-45 -34 -87 -58 -117 -21 -26 -62 -76 -91 -113 l-53 -65 -77 6 c-42 3 -95 1
-117 -4 -35 -9 -26 -10 63 -11 82 -1 102 -4 102 -15 0 -8 -4 -18 -10 -21 -5
-3 -10 -12 -10 -18 0 -14 63 -21 206 -21 93 -1 104 1 142 26 53 35 87 118 77
189 -10 69 20 146 62 164 38 16 67 67 59 101 -13 49 -7 310 9 396 17 96 29
132 58 165 13 15 21 42 24 86 6 70 10 63 -69 128 -22 18 -42 27 -49 23 -8 -5
-9 -3 -4 5 5 9 -16 35 -61 78 l-69 65 80 -6 c44 -3 145 -13 225 -23 80 -9 196
-17 258 -17 78 1 112 -2 109 -10 -2 -6 -17 -13 -33 -16 -20 -4 -30 -12 -32
-27 -3 -18 10 -29 71 -63 l75 -40 -6 -109 c-3 -81 0 -128 13 -187 43 -197 151
-380 273 -463 49 -33 67 -54 99 -113 22 -40 46 -84 54 -97 20 -34 158 -171
202 -201 20 -14 37 -31 37 -37 0 -7 12 -16 28 -19 15 -4 63 -22 107 -40 317
-129 668 -63 915 173 l78 74 573 1 574 1 -559 8 c-307 4 -561 10 -564 14 -4 3
-1 14 5 23 111 161 159 335 151 547 l-5 131 43 13 c47 14 70 34 59 51 -4 6
-38 25 -77 42 -63 28 -72 36 -95 82 -95 188 -246 338 -424 420 -55 26 -69 36
-57 41 10 4 15 12 11 17 -6 11 25 7 57 -6 22 -9 44 9 36 29 -5 14 -14 16 -51
11 -70 -11 -58 13 40 80 102 70 144 94 167 94 19 0 138 -157 201 -264 22 -39
62 -118 89 -176 27 -58 63 -132 80 -165 122 -233 277 -349 480 -360 66 -4 69
-5 117 -53 58 -58 163 -130 200 -138 14 -2 40 -12 56 -21 72 -39 106 -53 164
-69 59 -17 91 -13 61 6 -36 23 23 8 77 -19 56 -28 61 -29 143 -21 47 5 147 9
222 9 89 1 139 5 144 12 3 6 -6 22 -22 35 l-29 25 60 -7 c33 -4 68 -10 77 -15
28 -15 59 -10 105 16 l43 26 80 -66 c83 -67 172 -117 295 -166 l70 -28 -180
-2 c-99 0 -207 -5 -240 -9 -34 -4 133 -8 380 -9 l441 -1 74 -76 c111 -112 182
-165 305 -227 l110 -56 -295 -2 -295 -2 325 -8 c179 -5 341 -11 360 -15 l35
-7 -30 -7 c-17 -4 53 -10 156 -14 280 -12 432 14 607 103 136 70 202 116 284
197 289 283 406 675 319 1066 -86 382 -373 692 -749 808 -79 25 -235 50 -309
50 -53 0 -72 11 -55 33 5 7 15 29 22 50 14 43 71 80 105 67 76 -29 273 -16
406 26 99 31 211 110 253 177 34 56 29 76 -23 92 -19 6 -31 15 -29 24 3 16 32
27 101 36 58 8 56 13 -14 28 -28 7 -51 15 -50 20 0 4 1 16 1 27 0 15 9 22 31
27 17 3 33 13 36 22 3 9 12 23 18 31 7 8 15 27 19 43 5 22 2 29 -16 36 -13 6
-196 15 -408 21 -212 7 -423 15 -470 19 -71 7 -87 5 -98 -8 -10 -13 -9 -17 6
-22 22 -8 57 -61 67 -100 7 -30 -10 -39 -78 -39 -21 0 -46 -4 -55 -9 -9 -5
-47 -11 -84 -14 -36 -2 -70 -7 -76 -10 -10 -7 -68 -17 -287 -51 -575 -89 -626
-102 -722 -180 -28 -23 -49 -33 -63 -29 -24 6 -25 0 -5 -21 14 -13 14 -22 -1
-81 -15 -60 -19 -66 -39 -61 -16 4 -30 -4 -55 -29 -21 -22 -36 -31 -41 -24 -8
14 -43 -31 -98 -125 -69 -119 -28 -94 49 29 26 42 36 52 40 39 5 -13 9 -11 19
13 14 35 68 90 78 80 3 -4 -5 -31 -20 -59 -14 -29 -33 -87 -42 -128 -78 -352
-106 -419 -239 -558 -91 -94 -181 -159 -286 -205 -84 -37 -253 -61 -380 -54
-159 8 -180 23 -45 31 236 14 264 17 259 31 -3 8 9 17 33 24 l38 11 -43 -4
c-26 -3 -49 -11 -56 -22 -12 -15 -38 -18 -217 -22 -234 -5 -251 -1 -395 86
-93 56 -103 72 -42 66 57 -6 21 11 -43 20 -43 6 -55 16 -141 104 -180 186
-343 471 -422 740 -17 59 -17 59 48 64 36 3 39 6 41 33 1 17 5 59 10 94 8 63
7 65 -20 87 l-27 22 20 63 c12 35 22 80 24 99 2 22 8 34 16 33 6 -2 18 -4 25
-5 7 -2 12 7 12 22 0 24 -4 25 -73 33 -52 6 -79 14 -93 28 -16 16 -17 20 -4
25 8 4 15 18 15 33 0 14 7 48 15 75 18 60 21 300 4 357 -10 33 -9 42 8 71 24
41 67 167 88 262 9 38 28 97 42 130 21 52 25 75 24 156 -2 131 -15 189 -54
236 -18 22 -61 77 -94 124 -64 90 -102 121 -125 102 -7 -5 -51 -23 -96 -38
-64 -21 -90 -25 -110 -18 -37 13 -29 26 30 48 64 23 50 42 -14 20 -73 -24 -99
-17 -113 33 -13 43 -13 43 11 37 33 -8 30 8 -6 34 -35 26 -44 28 -36 6z m361
-186 c-6 -16 -168 -132 -201 -145 -14 -5 -15 -1 -9 28 10 45 19 55 56 63 33 6
31 26 -3 26 -32 0 -18 9 64 39 56 22 76 25 86 16 7 -6 10 -19 7 -27z m-248
-15 c29 -7 35 -27 18 -66 -7 -17 -17 -49 -20 -69 -4 -27 -17 -47 -47 -73 -23
-19 -48 -35 -55 -35 -18 0 -17 71 1 114 7 18 17 53 21 77 9 53 23 72 44 63 9
-4 26 -9 38 -11z m-6914 -447 c3 -7 -1 -23 -10 -35 -8 -12 -13 -27 -10 -34 2
-6 11 2 20 19 23 45 42 48 105 17 88 -44 89 -45 101 -84 12 -40 3 -79 -26
-111 -18 -20 -30 -16 -100 28 l-52 33 -30 -37 c-54 -65 -103 -168 -99 -210 3
-34 7 -39 61 -65 31 -15 57 -33 57 -39 0 -33 -111 -188 -135 -188 -23 0 -220
126 -223 143 -2 9 26 81 62 160 36 79 66 151 66 160 0 9 5 28 12 42 l11 25 11
-22 c14 -28 35 -33 61 -14 20 15 19 15 -2 9 -17 -4 -23 -1 -23 11 0 21 25 71
56 112 13 17 24 38 24 47 0 30 12 47 35 47 13 0 25 -6 28 -14z m316 -224 c5
-26 15 -102 22 -168 l12 -121 -39 -79 c-40 -81 -85 -124 -128 -124 -12 0 -57
-25 -101 -55 -75 -51 -81 -53 -102 -39 -13 8 -23 10 -23 4 0 -5 -6 -10 -14
-10 -30 0 -22 32 26 102 72 104 309 539 263 483 -9 -11 -20 -27 -25 -35 -5 -8
-12 -11 -16 -7 -4 4 3 30 16 58 18 38 28 49 42 46 10 -3 21 -1 24 4 11 18 32
-12 43 -59z m-545 -10 c-9 -44 -26 -82 -35 -82 -15 0 -10 74 7 98 20 28 36 19
28 -16z m370 -69 l-2 -36 18 23 c9 12 20 18 23 13 3 -5 -16 -47 -44 -94 -56
-95 -69 -110 -76 -91 -3 6 -17 12 -32 12 -15 0 -47 10 -71 23 -55 27 -55 39
-4 147 55 116 55 116 128 75 58 -33 61 -37 60 -72z m-914 43 c0 -7 -7 -19 -15
-26 -12 -10 -15 -9 -15 7 0 11 3 23 7 26 11 12 23 8 23 -7z m-80 -220 c-14
-18 -40 -21 -40 -5 0 6 5 20 11 31 10 18 12 19 27 5 13 -13 13 -19 2 -31z
m6939 -20 c29 -13 72 -79 50 -75 -8 1 -27 -3 -42 -9 -40 -17 -53 -15 -69 10
-15 22 -17 22 -54 9 -22 -7 -45 -18 -51 -23 -21 -17 -4 -28 24 -17 32 12 42 4
21 -17 -14 -14 -19 -14 -54 3 -31 14 -40 24 -42 49 -3 28 0 32 26 37 16 3 46
17 67 31 38 26 71 27 124 2z m-6762 -2 c-8 -8 -124 -33 -154 -34 -30 0 -30 18
0 30 25 10 164 14 154 4z m66 -100 l2 -58 -95 -12 c-66 -9 -99 -9 -107 -2 -18
14 -16 83 2 102 21 21 170 49 188 35 4 -3 9 -32 10 -65z m7828 9 c0 -27 4 -70
7 -98 10 -70 -4 -205 -24 -252 -9 -21 -16 -43 -15 -49 2 -19 -45 -37 -65 -26
-10 6 -25 7 -34 2 -8 -4 -41 -11 -73 -15 -32 -3 -89 -15 -127 -26 -52 -14
-102 -19 -195 -19 -119 0 -125 1 -125 20 0 12 7 35 17 53 9 18 19 57 22 87 6
52 8 56 71 106 35 29 67 60 70 70 5 14 8 11 13 -14 4 -17 4 -39 1 -47 -4 -9
-1 -15 7 -15 11 0 146 84 344 216 44 29 86 53 93 53 8 1 12 -15 13 -46z
m-1051 -39 c0 -17 -24 -24 -81 -24 -42 0 -49 3 -49 20 0 14 7 20 23 20 12 1
36 7 52 14 26 12 32 11 43 -2 6 -9 12 -21 12 -28z m-6186 -25 c-25 -27 -28
-17 -8 23 14 26 19 29 22 15 2 -10 -4 -27 -14 -38z m6031 22 c-3 -12 -13 -21
-21 -21 -18 0 -18 9 3 32 20 22 27 17 18 -11z m709 -13 l25 -43 -47 -48 c-58
-60 -128 -107 -158 -107 -12 0 -33 9 -46 20 -12 12 -38 30 -57 41 l-34 21 31
25 c31 24 43 53 22 53 -6 0 -27 -15 -48 -34 -37 -35 -37 -35 -20 -63 9 -15 33
-37 53 -48 20 -11 44 -32 53 -48 16 -27 16 -30 -20 -100 -58 -112 -82 -135
-157 -153 -74 -17 -86 -23 -74 -35 6 -6 29 -3 58 6 27 8 51 12 53 10 2 -2 -10
-24 -27 -49 -17 -25 -41 -67 -52 -93 -11 -26 -21 -49 -23 -50 -1 -1 -31 25
-67 58 -37 34 -60 63 -54 67 6 4 23 27 39 52 42 65 167 218 215 265 39 37 52
65 31 65 -5 0 -32 -22 -59 -50 -28 -27 -54 -50 -60 -50 -5 0 -20 -19 -34 -42
-14 -24 -62 -88 -106 -143 -45 -55 -81 -104 -81 -108 0 -10 35 -44 80 -78 l35
-26 -24 -69 c-52 -149 -111 -241 -291 -457 -43 -51 -72 -77 -86 -77 -12 0 -52
29 -95 68 -41 37 -89 77 -106 90 -18 13 -33 29 -33 36 0 7 24 44 53 83 87 118
149 204 202 283 28 41 64 93 79 115 15 22 52 87 81 145 38 75 58 106 72 107
10 1 62 26 114 57 53 30 121 67 152 81 52 25 76 55 44 55 -7 0 -85 -35 -173
-79 -177 -87 -176 -86 -244 -220 -23 -47 -74 -132 -113 -190 -104 -156 -295
-409 -317 -421 -15 -8 -23 -4 -44 21 -25 30 -34 59 -18 59 4 0 18 19 29 43 12
23 40 65 62 92 105 131 218 324 290 499 34 81 38 84 429 244 34 14 62 30 62
34 0 23 -37 16 -122 -23 -51 -23 -130 -56 -175 -74 -155 -61 -211 -111 -249
-216 -35 -101 -152 -305 -232 -405 -45 -58 -89 -107 -97 -111 -8 -3 -15 -13
-15 -23 0 -9 -9 -29 -20 -43 -20 -25 -20 -28 -4 -52 16 -24 16 -25 -5 -25 -22
0 -71 41 -71 59 0 6 9 15 20 21 19 10 20 21 20 270 0 143 -2 260 -5 260 -2 0
-60 9 -127 19 -68 11 -143 21 -168 23 l-45 3 0 -219 c0 -215 1 -219 23 -234
21 -13 22 -22 22 -126 l0 -112 38 -35 c41 -39 313 -260 405 -328 56 -43 69
-69 45 -88 -7 -6 -56 -32 -108 -59 -52 -26 -98 -52 -101 -57 -4 -5 -9 -4 -13
2 -12 18 -36 12 -36 -9 0 -14 -7 -20 -21 -20 -16 0 -19 -4 -14 -21 6 -19 3
-18 -52 9 -67 34 -79 36 -266 57 -170 18 -167 18 -167 0 0 -8 4 -15 8 -15 5 0
14 -12 21 -27 l12 -26 -108 7 c-59 3 -191 17 -293 29 l-185 23 0 29 c0 24 4
30 20 28 11 -2 99 -14 195 -27 253 -35 320 -41 320 -27 0 6 -6 14 -12 16 -33
11 -477 66 -506 63 l-34 -4 7 75 c3 42 20 118 36 169 16 51 29 99 29 107 0 23
18 18 25 -7 17 -54 97 -208 105 -203 6 4 7 24 4 48 l-7 42 27 -24 c22 -21 29
-23 50 -13 21 9 27 8 40 -11 15 -22 15 -21 10 9 -4 21 -1 34 10 43 22 19 20
34 -3 21 -30 -16 -37 -12 -49 23 -5 18 -10 24 -11 14 -1 -10 4 -28 10 -39 8
-16 8 -24 -4 -35 -13 -13 -20 -7 -60 45 -53 71 -63 88 -87 156 -25 68 -24 30
0 -68 11 -44 18 -81 16 -83 -2 -2 -14 20 -26 49 -27 60 -41 176 -20 163 8 -5
10 -2 6 11 -3 11 -14 55 -25 99 -36 150 -119 322 -212 441 -34 43 -66 85 -72
92 -19 25 1 22 32 -4 62 -52 172 -232 230 -377 13 -32 26 -56 29 -53 8 9 -69
189 -123 287 -62 110 -138 189 -182 189 -18 0 -40 12 -65 37 -21 20 -38 32
-38 27 0 -6 10 -19 21 -30 35 -31 134 -164 200 -270 72 -115 147 -302 156
-390 7 -75 -17 -202 -57 -297 -15 -37 -55 -109 -88 -160 -49 -76 -112 -195
-112 -213 0 -2 8 -4 18 -4 12 0 30 27 59 89 23 49 53 102 67 117 l24 29 -5
-67 c-6 -71 14 -156 44 -190 20 -23 35 -13 27 18 -5 20 -2 24 15 24 14 0 19
-5 15 -15 -7 -18 1 -20 220 -45 258 -30 495 -43 511 -30 10 8 17 4 28 -20 l15
-30 -41 -2 c-23 0 -49 0 -57 0 -8 1 -44 2 -80 2 -36 1 -119 8 -185 16 -66 8
-194 24 -285 34 -91 11 -241 31 -335 45 -93 14 -208 30 -255 36 -76 9 -124 17
-340 59 -126 25 -430 118 -430 132 0 11 53 34 103 43 40 8 46 28 10 33 -12 2
-55 -8 -97 -22 -91 -31 -116 -32 -187 -7 -252 89 -354 127 -486 179 -83 34
-160 66 -170 71 -10 6 -31 16 -47 21 -23 8 -27 15 -22 33 4 12 9 59 13 104 5
73 9 85 30 99 32 21 47 59 72 183 28 137 27 202 -4 293 -37 108 -36 112 28
104 208 -24 386 -16 531 25 39 11 139 34 221 51 145 31 158 32 390 32 213 0
248 -3 315 -21 41 -12 84 -25 94 -29 16 -6 18 -4 13 10 -7 17 -1 18 62 14 99
-5 213 -64 318 -162 61 -58 92 -97 141 -182 56 -99 67 -129 117 -314 65 -239
107 -370 112 -353 3 7 -3 36 -12 64 -21 63 -13 75 13 17 19 -44 48 -76 59 -65
3 4 -11 41 -32 83 -45 94 -109 254 -125 314 -46 177 -89 275 -176 397 -35 50
-63 73 -137 119 -169 105 -314 152 -377 121 -27 -14 -36 -14 -79 -1 -58 17
-101 48 -86 62 10 10 391 32 895 53 151 6 289 15 305 20 36 11 -229 4 -610
-16 -148 -8 -346 -17 -440 -19 l-170 -5 185 14 c305 23 1086 63 1725 90 330
13 653 27 718 29 109 5 118 4 112 -12 -12 -27 -18 -62 -11 -62 3 0 27 22 53
49 38 38 61 52 107 66 33 9 73 14 90 12 17 -3 40 -2 51 3 31 13 32 13 59 -32z
m-5375 -14 c27 -34 26 -41 -4 -106 l-25 -53 25 -18 c18 -14 25 -28 25 -53 0
-21 -4 -33 -10 -29 -5 3 -10 17 -10 30 0 40 -19 38 -22 -2 -4 -51 -26 -49 -47
5 -10 24 -23 47 -30 51 -9 6 -3 24 23 73 20 36 36 79 36 96 0 39 12 41 39 6z
m4529 7 c7 -4 -99 -11 -235 -14 -332 -9 -848 -9 -839 0 6 7 344 14 921 21 77
1 146 -2 153 -7z m-1028 -58 c-14 -1 -162 -9 -330 -18 -168 -9 -408 -22 -535
-30 -358 -23 -411 -23 -465 6 l-45 24 130 7 c162 10 1223 25 1250 18 17 -4 16
-5 -5 -7z m-1925 -2 c-15 -15 -468 -33 -807 -33 -290 0 -544 9 -534 19 2 3
141 5 308 5 166 0 380 3 473 7 258 12 570 12 560 2z m-1500 -31 c8 -14 -23
-70 -39 -70 -19 0 -28 28 -16 50 14 26 44 38 55 20z m1750 -10 c95 -11 170
-28 162 -36 -3 -3 -148 -12 -324 -20 -175 -7 -453 -21 -618 -29 -277 -14 -301
-14 -312 1 -6 9 -17 13 -23 9 -6 -4 -17 1 -25 11 -13 18 -14 17 -20 -9 -8 -29
-9 -30 -42 -21 -26 7 -31 24 -8 24 10 0 15 10 15 30 l0 30 84 0 c75 0 85 -2
99 -22 l16 -23 7 23 c5 18 13 22 51 22 27 0 42 -4 38 -10 -11 -18 149 -13 570
19 150 12 231 12 330 1z m-1238 -14 c2 -2 -5 -21 -14 -44 l-16 -42 -169 0
c-159 0 -168 1 -168 19 0 11 -15 28 -35 41 -19 12 -32 26 -29 32 4 6 80 7 218
3 116 -4 212 -8 213 -9z m1497 -2 c9 -3 14 -10 11 -14 -6 -10 -45 -1 -45 11 0
10 12 11 34 3z m-1928 -45 c19 -11 34 -25 34 -30 0 -12 -97 -12 -105 1 -10 16
5 50 22 50 9 0 31 -9 49 -21z m2037 -33 c9 -23 -2 -26 -92 -26 -158 0 -325
-21 -526 -65 -234 -51 -387 -70 -505 -61 -112 7 -202 26 -216 44 -12 16 -45
13 -51 -4 -2 -6 5 -14 15 -16 27 -7 83 -164 89 -249 9 -117 -48 -365 -76 -333
-11 12 -31 165 -31 230 0 56 -16 114 -32 114 -6 0 -8 -11 -4 -27 4 -16 9 -55
12 -89 5 -49 3 -63 -10 -77 -23 -22 -46 -22 -46 1 0 10 -5 23 -11 29 -5 5 -9
32 -7 59 3 41 6 49 23 49 11 0 20 7 20 15 0 10 -10 15 -30 15 l-30 0 -6 -110
c-4 -60 -7 -131 -8 -157 -1 -55 -21 -66 -21 -13 0 20 -6 46 -14 58 -8 12 -19
76 -26 142 -13 135 -34 250 -56 306 -12 29 -22 38 -45 41 -35 5 -36 1 -4 -62
53 -106 66 -153 76 -280 7 -83 17 -140 30 -169 23 -52 24 -81 4 -81 -26 0 -57
84 -69 189 -8 60 -46 169 -99 281 -43 93 -54 145 -31 154 8 3 55 6 104 6 66 0
91 -4 100 -15 15 -18 41 -20 34 -2 -2 7 2 26 9 41 14 27 14 27 21 4 9 -36 7
-97 -4 -119 -8 -15 -7 -19 5 -19 8 0 15 -4 15 -10 0 -5 4 -10 8 -10 11 0 31
57 38 113 6 43 9 47 38 51 33 5 272 19 616 36 118 6 287 15 375 19 278 14 412
13 418 -3z m82 -6 c10 -11 16 -22 14 -25 -7 -6 -49 24 -49 36 0 15 16 10 35
-11z m-1887 -29 c106 -5 196 -12 199 -15 11 -10 -511 -6 -527 4 -28 18 10 31
75 25 33 -3 147 -10 253 -14z m-494 -1 c-16 -16 -198 -38 -544 -65 -179 -14
-372 -30 -428 -36 -75 -8 -107 -8 -115 0 -6 6 -8 14 -4 17 9 9 294 39 652 68
329 27 454 31 439 16z m5336 -13 c0 -58 -71 -234 -89 -222 -12 6 -41 -4 -41
-15 0 -5 8 -10 19 -12 17 -3 16 -9 -15 -73 -19 -38 -34 -76 -34 -82 0 -7 -4
-13 -10 -13 -15 0 -12 11 10 45 22 33 26 65 9 65 -24 0 -50 -22 -44 -38 7 -18
-73 -142 -92 -142 -20 0 23 109 68 170 89 123 153 225 171 274 11 28 22 54 24
58 10 16 24 7 24 -15z m-6802 -40 c2 -15 -1 -27 -7 -27 -6 0 -11 7 -11 15 0 9
-6 12 -15 9 -9 -4 -15 0 -15 8 0 39 44 35 48 -5z m-30 -61 c3 -12 -1 -17 -10
-14 -7 3 -15 13 -16 22 -3 12 1 17 10 14 7 -3 15 -13 16 -22z m79 -19 c4 -73
-20 -89 -39 -26 -11 37 -10 43 7 55 23 17 29 11 32 -29z m289 31 c10 -16 -25
-38 -61 -38 -41 0 -49 9 -28 32 18 20 78 25 89 6z m-166 -8 c-20 -13 -47 -13
-55 0 -4 6 9 10 32 10 28 0 34 -3 23 -10z m-186 -73 c17 -26 -12 -71 -48 -75
-24 -3 -28 -1 -21 15 4 10 9 27 12 38 10 41 13 46 29 43 9 -2 22 -11 28 -21z
m7316 7 c0 -2 -17 -4 -37 -3 -29 0 -33 2 -18 8 18 7 55 4 55 -5z m-2011 -267
c1 -103 -2 -156 -9 -152 -6 4 -9 83 -9 208 1 137 4 186 9 152 5 -27 9 -121 9
-208z m6221 227 c-109 -23 -537 -44 -526 -26 3 5 97 12 208 16 112 5 226 11
253 16 28 4 68 7 90 7 34 1 30 -1 -25 -13z m294 0 c8 -22 -10 -51 -37 -57 -22
-6 -493 -77 -508 -77 -9 0 -18 60 -9 65 3 2 76 15 161 29 84 14 192 32 239 39
117 20 147 20 154 1z m-6394 -7 c0 -2 -10 -12 -21 -23 -22 -19 -22 -19 -10 4
10 18 31 31 31 19z m1432 -8 c20 -11 20 -12 -12 -25 -18 -8 -39 -14 -46 -14
-23 0 -16 30 9 40 29 12 25 12 49 -1z m589 0 c6 -3 -27 -9 -73 -13 -46 -4
-146 -18 -223 -32 -77 -14 -149 -26 -160 -28 -35 -7 -129 -47 -148 -64 -10 -9
-15 -22 -13 -29 6 -14 -12 -17 -38 -7 -11 4 -16 19 -16 49 l0 42 118 41 c64
22 131 43 147 45 47 7 394 4 406 -4z m-1852 -331 c1 -89 -3 -148 -9 -148 -9 0
-19 430 -10 466 7 28 18 -151 19 -318z m1940 300 c0 -18 -10 -64 -22 -103 -21
-65 -25 -70 -54 -73 l-31 -3 19 68 c10 37 21 85 24 106 5 33 9 37 35 37 27 0
30 -3 29 -32z m-2109 -323 c0 -206 -3 -305 -10 -305 -9 0 -67 26 -77 35 -2 1
8 29 22 63 32 78 31 90 -1 32 -14 -25 -22 -36 -18 -25 3 11 12 39 19 61 8 23
21 56 30 74 9 17 14 34 11 37 -2 3 -18 -21 -35 -53 -16 -33 -30 -57 -31 -54 0
3 13 42 29 87 17 49 25 83 19 85 -7 3 -4 16 6 35 21 41 21 60 1 43 -20 -17
-21 9 0 36 19 25 19 35 -1 27 -14 -5 -14 -2 0 30 8 20 11 39 6 42 -9 6 11 55
23 55 4 0 7 -137 7 -305z m1845 298 c-11 -3 -31 -10 -45 -16 -14 -6 -50 -11
-81 -12 -44 -2 -70 -10 -122 -39 -65 -37 -167 -60 -167 -39 0 33 110 69 293
98 82 13 162 18 122 8z m3949 -18 c-4 -8 -10 -12 -15 -9 -14 8 -10 24 6 24 9
0 12 -6 9 -15z m-76 -7 c-2 -6 -30 -26 -61 -43 -45 -25 -79 -35 -156 -44 -55
-7 -104 -10 -110 -7 -5 4 -49 2 -98 -4 -48 -5 -175 -18 -281 -29 -310 -32
-639 -97 -650 -129 -3 -10 4 -10 35 1 100 37 453 95 733 122 51 4 61 3 47 -6
-10 -6 -93 -19 -183 -29 -377 -43 -526 -70 -644 -117 -20 -8 31 -20 93 -22 40
-1 49 -5 57 -25 5 -13 14 -27 19 -31 17 -10 13 -22 -10 -28 -19 -5 -19 -7 13
-56 30 -46 36 -51 63 -46 17 3 35 12 41 20 12 16 37 18 68 6 17 -7 16 -10 -18
-36 -20 -15 -49 -29 -64 -30 -15 -1 -32 -3 -39 -3 -6 -1 -34 -20 -63 -43 -67
-53 -107 -69 -172 -68 -131 2 -213 115 -173 241 9 29 22 64 28 77 17 35 119
98 196 122 36 11 334 62 661 114 327 51 606 96 620 98 45 8 52 7 48 -5z m42
-23 c0 -8 -4 -15 -9 -15 -13 0 -22 16 -14 24 11 11 23 6 23 -9z m-4447 -43
c-3 -12 -9 -22 -14 -22 -17 0 -21 28 -9 51 10 18 14 20 21 7 4 -8 5 -24 2 -36z
m4997 35 c0 -25 -50 -37 -289 -73 -130 -19 -264 -39 -297 -45 -34 -6 -72 -9
-85 -7 -21 3 -19 6 21 29 38 23 62 28 155 33 61 4 166 18 235 31 115 23 216
41 248 44 6 0 12 -5 12 -12z m-4562 -4 c-16 -2 -40 -2 -55 0 -16 2 -3 4 27 4
30 0 43 -2 28 -4z m3949 -17 c-59 -45 -427 -189 -443 -173 -5 5 -10 3 211 87
88 33 176 69 195 79 41 22 63 26 37 7z m-10569 -11 c-15 -15 -429 -81 -545
-86 -72 -4 -76 7 -6 15 32 4 157 22 278 40 217 33 283 41 273 31z m6677 -15
c4 -6 -27 -10 -87 -9 -61 0 -86 3 -73 9 28 12 153 12 160 0z m-495 -46 c0 -14
-3 -14 -15 -4 -8 7 -15 14 -15 16 0 2 7 4 15 4 8 0 15 -7 15 -16z m285 -2
c-25 -14 -47 -16 -130 -12 l-100 5 65 8 c62 7 116 12 170 15 24 2 24 1 -5 -16z
m148 11 c-13 -2 -33 -2 -45 0 -13 2 -3 4 22 4 25 0 35 -2 23 -4z m130 -8 c10
-23 -9 -26 -34 -5 l-24 19 26 1 c15 0 29 -7 32 -15z m3607 11 c0 -13 -156 -56
-220 -61 -41 -3 -132 -13 -201 -21 -70 -9 -138 -14 -150 -12 -13 2 35 12 106
21 72 10 164 27 205 38 92 23 260 46 260 35z m-11184 -51 c-4 -15 -12 -25 -19
-22 -17 5 -21 35 -6 53 17 21 33 2 25 -31z m7309 9 c-15 -16 -17 -32 -10 -146
6 -116 5 -128 -10 -128 -15 0 -17 14 -13 136 3 120 5 137 22 150 26 18 33 10
11 -12z m195 16 c0 -6 -27 -10 -62 -9 -47 1 -57 3 -38 9 36 12 100 12 100 0z
m4460 -9 c0 -20 -33 -29 -175 -45 -82 -10 -197 -24 -255 -31 -208 -28 -200
-10 10 24 74 12 187 30 250 40 132 22 170 25 170 12z m-4952 -24 c3 -12 -3
-17 -22 -17 -25 0 -35 18 -19 34 12 12 38 2 41 -17z m822 8 c19 -22 -1 -26
-126 -23 -94 3 -109 5 -112 21 -3 15 7 17 111 17 89 0 117 -3 127 -15z m-590
-11 c0 -12 -6 -15 -22 -10 -13 3 -51 6 -85 6 -35 0 -63 4 -63 10 0 6 35 10 85
10 72 0 85 -3 85 -16z m156 4 c4 -6 -5 -21 -22 -35 -24 -19 -27 -26 -18 -40
15 -24 92 -29 119 -9 20 14 20 15 -3 45 -30 42 -28 53 11 49 l32 -3 0 -130 0
-130 -25 3 c-33 4 -50 28 -50 68 0 20 -6 34 -16 38 -25 10 -45 -13 -42 -48 2
-25 -2 -33 -25 -44 -16 -8 -31 -11 -34 -8 -3 3 -8 59 -11 125 -4 110 -3 119
14 124 35 9 63 7 70 -5z m174 -47 c0 -31 -5 -53 -15 -61 -13 -11 -15 -5 -15
47 0 33 3 63 6 66 15 14 24 -7 24 -52z m-126 23 c3 -9 6 -16 6 -17 0 -1 -11
-3 -25 -3 -27 -2 -31 6 -13 24 16 16 25 15 32 -4z m-1700 -51 c-7 -40 9 -38
19 2 3 11 5 -11 5 -50 -1 -38 2 -77 5 -85 3 -8 7 -67 9 -131 l3 -117 -27 14
-28 15 0 194 c0 129 4 195 10 195 7 0 8 -14 4 -37z m1274 31 c27 -8 29 -24 2
-31 -11 -3 -20 -14 -20 -24 0 -12 5 -16 15 -13 9 4 15 0 15 -10 0 -11 -7 -15
-22 -12 -17 2 -23 10 -23 27 0 13 -6 29 -14 35 -15 12 -7 34 12 34 7 0 22 -3
35 -6z m222 -29 c0 -12 -16 -15 -85 -15 -69 0 -85 3 -85 15 0 12 16 15 85 15
69 0 85 -3 85 -15z m589 -1 c2 -2 1 -10 -2 -19 -5 -12 -25 -15 -106 -15 -55 0
-106 3 -115 6 -28 11 -18 33 17 37 33 4 199 -3 206 -9z m-386 -1 c-13 -2 -33
-2 -45 0 -13 2 -3 4 22 4 25 0 35 -2 23 -4z m3437 3 c0 -2 -21 -12 -47 -21
-87 -29 -543 -78 -543 -57 0 5 44 13 98 16 153 11 279 26 377 46 100 20 115
22 115 16z m1134 -4 c9 -15 -30 -62 -82 -102 -74 -55 -266 -122 -305 -107 -6
3 -1 6 13 7 36 1 190 56 219 78 58 43 25 61 -49 26 -57 -26 -92 -32 -47 -8 32
17 36 28 7 19 -12 -4 -20 -2 -20 5 0 8 -6 8 -20 0 -16 -9 -19 -8 -13 6 5 13 3
15 -13 7 -10 -6 -35 -13 -54 -16 -19 -3 -44 -9 -55 -13 -18 -7 -18 -6 -6 9 16
20 12 21 -24 7 -23 -9 -26 -8 -23 7 2 13 26 21 103 35 252 46 358 57 369 40z
m-9390 -12 l26 -10 0 -168 c0 -93 -3 -171 -6 -175 -3 -3 -14 -2 -23 2 -9 5
-36 15 -61 23 l-45 15 -3 69 c-3 79 16 80 22 1 4 -54 12 -68 27 -47 6 9 8 63
5 139 -5 118 2 161 24 161 5 0 20 -4 34 -10z m4264 -4 c20 0 32 -4 32 -13 0
-7 -5 -13 -11 -13 -22 0 -105 23 -114 32 -6 7 2 7 25 2 19 -5 50 -8 68 -8z
m4511 0 c-2 -2 -67 -16 -144 -31 -77 -15 -148 -31 -159 -37 -13 -7 -21 -7 -26
1 -9 15 -175 -39 -199 -65 -15 -16 -15 -16 2 -11 21 8 23 -9 1 -17 -23 -9
-107 -7 -122 3 -10 6 9 18 63 40 143 60 264 95 395 115 35 5 194 7 189 2z
m-4449 -53 c-11 -17 -11 -17 -6 0 3 10 6 24 7 30 0 9 2 9 5 0 3 -7 0 -20 -6
-30z m-200 -55 c0 -31 -4 -60 -10 -63 -6 -4 -10 22 -10 72 0 54 3 73 10 63 5
-8 10 -41 10 -72z m101 71 c58 -20 54 -28 -6 -14 -31 8 -60 16 -63 19 -9 10
33 7 69 -5z m-151 -11 c0 -13 -16 -259 -25 -371 -3 -50 -9 -64 -44 -106 -54
-65 -104 -97 -178 -116 -66 -17 -180 -17 -176 0 10 46 38 101 68 132 81 88
288 362 312 416 26 54 43 72 43 45z m870 -57 c0 -26 -7 -56 -15 -67 -13 -17
-14 -12 -15 60 0 69 2 77 15 66 9 -8 15 -30 15 -59z m3945 50 c-6 -6 -28 -17
-50 -27 l-40 -16 19 20 c16 18 32 25 71 31 6 0 6 -2 0 -8z m-4267 -13 c-3 -9
-33 -14 -91 -16 -73 -2 -87 0 -87 13 0 12 16 15 91 15 68 0 90 -3 87 -12z
m557 2 c4 -6 -33 -10 -104 -10 -67 0 -111 4 -111 10 0 6 41 10 104 10 59 0
108 -4 111 -10z m2462 -6 c5 -15 -28 -27 -40 -15 -5 5 -6 14 -2 21 8 13 37 9
42 -6z m-3326 -62 c-26 -51 -48 -68 -109 -82 -40 -9 -57 -9 -65 -1 -8 8 -3 11
19 11 50 0 117 40 137 83 10 20 23 35 28 32 5 -4 0 -23 -10 -43z m3624 23
c-22 -14 -47 -23 -55 -21 -8 3 -42 7 -75 11 -106 11 -103 20 10 26 61 3 121 6
135 7 22 1 20 -2 -15 -23z m-3135 -5 c0 -11 -7 -20 -15 -20 -15 0 -21 21 -8
33 12 13 23 7 23 -13z m-330 -32 c0 -53 -28 -230 -38 -240 -4 -4 -1 58 7 137
8 80 18 145 23 145 4 0 8 -19 8 -42z m3341 12 c41 0 53 -8 39 -26 -8 -8 -21
-9 -43 -4 -161 42 -219 67 -99 44 37 -7 83 -13 103 -14z m-3426 -202 c-9 -117
-19 -215 -21 -217 -11 -11 -10 17 3 179 16 206 23 264 29 257 3 -3 -2 -101
-11 -219z m3545 187 c-12 -15 -100 -67 -100 -60 0 5 102 75 109 75 2 0 -2 -7
-9 -15z m590 -11 c-94 -30 -327 -43 -430 -25 -64 12 -45 14 125 12 89 0 181 5
225 13 101 18 138 18 80 0z m-3665 -15 c5 -5 -26 -9 -83 -9 -51 0 -92 2 -92 5
0 22 152 26 175 4z m4038 -6 c99 -9 80 -26 -24 -21 -101 4 -143 17 -99 29 14
4 34 5 45 2 11 -3 46 -7 78 -10z m-193 -3 c0 -5 -7 -10 -16 -10 -8 0 -12 5 -9
10 3 6 10 10 16 10 5 0 9 -4 9 -10z m-84 -39 c-7 -46 -44 -136 -52 -128 -3 3
4 31 15 62 20 54 20 82 0 70 -34 -21 -692 -95 -708 -80 -12 12 15 18 96 20 48
1 133 8 188 14 55 7 125 14 155 17 70 6 192 30 250 48 64 20 63 20 56 -23z
m-3754 16 c-8 -9 -30 -12 -74 -9 -96 6 -95 22 1 22 68 0 81 -2 73 -13z m3067
-11 c-2 -2 -31 -24 -64 -48 -193 -144 -346 -330 -444 -543 -23 -49 -46 -85
-54 -85 -12 0 -87 27 -95 35 -6 5 33 83 80 158 75 120 184 253 274 332 129
113 134 115 33 15 -110 -108 -126 -132 -104 -150 12 -10 27 0 88 61 75 76 212
194 251 215 20 12 44 18 35 10z m111 -7 c23 0 23 -1 5 -9 -26 -11 -85 -12 -85
-2 0 16 14 23 35 18 11 -3 31 -6 45 -7z m-3242 -16 c-10 -2 -26 -2 -35 0 -10
3 -2 5 17 5 19 0 27 -2 18 -5z m2402 -60 c6 -26 17 -43 25 -43 23 0 18 -13
-21 -51 -20 -18 -56 -68 -80 -109 -24 -41 -44 -68 -44 -60 0 32 49 230 66 262
21 42 38 63 41 52 1 -5 7 -28 13 -51z m-3823 -1 c29 -15 53 -31 53 -36 0 -18
-100 3 -137 29 -21 14 -46 25 -55 25 -10 0 -18 5 -18 11 0 18 100 0 157 -29z
m1443 4 c0 -33 -13 -46 -46 -46 -10 0 -14 12 -14 40 0 38 2 40 30 40 27 0 30
-3 30 -34z m-1534 -43 c33 -23 52 -28 123 -31 l84 -4 81 -78 c80 -77 80 -78
66 -106 -8 -16 -14 -34 -15 -41 -1 -25 -16 -24 -69 7 -37 21 -56 38 -56 50 0
21 -64 70 -92 70 -24 0 -104 38 -119 56 -7 8 11 3 40 -11 28 -15 57 -25 64
-22 6 2 -14 15 -46 30 -68 31 -127 74 -127 93 0 21 23 17 66 -13z m1514 -63
c0 -40 -3 -48 -15 -44 -10 4 -15 20 -15 50 0 32 4 44 15 44 11 0 15 -12 15
-50z m-4879 -9 c9 -26 13 -29 33 -20 17 8 32 7 59 -5 31 -13 37 -20 37 -45 0
-39 -11 -39 -100 0 -70 32 -79 44 -64 83 9 25 24 19 35 -13z m7359 24 c0 -3
-24 -29 -52 -58 -33 -32 -75 -93 -110 -157 -70 -127 -76 -121 -11 10 29 57 69
117 102 152 47 51 71 69 71 53z m1601 -24 c295 -66 498 -209 676 -479 172
-259 219 -600 123 -891 -61 -187 -117 -282 -256 -433 -149 -163 -361 -278
-597 -323 -197 -38 -470 5 -664 104 -282 143 -499 425 -562 730 -34 162 -23
483 16 498 10 4 11 8 4 12 -20 13 59 198 137 321 139 220 410 405 672 461 120
25 336 25 451 0z m-5546 -97 c66 -53 173 -137 237 -187 65 -50 116 -93 113
-95 -6 -6 -68 34 -91 59 -27 30 -100 79 -118 79 -8 0 -17 9 -21 20 -7 21 -60
70 -78 70 -6 0 4 -16 23 -35 42 -43 28 -46 -23 -4 -27 22 -36 36 -32 49 5 15
-12 33 -70 79 -42 34 -73 61 -68 61 4 0 62 -43 128 -96z m1076 55 c-9 -22 -10
-22 -10 -3 -1 11 2 24 6 27 12 12 14 0 4 -24z m-4062 -68 c124 -49 273 -105
330 -125 58 -20 111 -42 119 -49 8 -7 47 -19 86 -28 39 -9 159 -39 266 -67
107 -27 249 -62 315 -76 179 -37 682 -112 910 -135 234 -24 407 -50 416 -64 4
-5 9 -5 13 2 9 13 53 15 61 2 23 -38 -154 -38 -500 0 -99 10 -202 24 -230 29
-27 5 -108 17 -180 26 -71 8 -193 26 -270 39 -77 13 -167 27 -200 30 -136 15
-499 120 -855 247 -449 159 -530 197 -530 244 0 8 5 14 12 14 6 0 113 -40 237
-89z m4489 27 c93 -39 197 -106 292 -191 79 -70 195 -197 132 -145 -30 25
-115 48 -129 35 -3 -3 10 -25 30 -49 19 -24 56 -75 82 -115 43 -65 53 -74 110
-98 35 -15 68 -26 74 -24 11 4 -24 66 -87 157 l-34 47 31 -35 c42 -47 144
-200 138 -207 -3 -3 -49 14 -102 38 -93 40 -100 46 -144 108 -113 159 -293
358 -375 414 -15 11 -31 30 -36 43 -6 15 -18 24 -30 24 -22 0 -80 26 -80 36 0
10 49 -5 128 -38z m-583 -40 c49 -17 92 -33 94 -34 13 -11 -95 -134 -144 -164
l-32 -20 -47 26 c-54 30 -56 41 -3 19 42 -18 47 -18 47 -6 0 5 -20 17 -45 27
-25 9 -45 21 -45 25 0 11 12 11 42 0 43 -16 78 -21 78 -13 0 8 -48 32 -92 46
-24 7 -23 26 0 26 10 0 40 -7 66 -16 73 -25 67 -8 -10 27 -77 36 -73 48 7 25
29 -9 57 -16 63 -16 22 0 -17 26 -61 41 -51 17 -69 39 -32 39 13 0 64 -14 114
-32z m550 12 c9 -14 -4 -110 -15 -110 -9 0 -22 99 -14 111 7 12 21 11 29 -1z
m-765 -162 c0 -5 -74 -8 -165 -8 -91 0 -165 3 -165 8 0 4 74 7 165 7 91 0 165
-3 165 -7z m901 2 c23 -7 57 -31 92 -68 54 -55 127 -145 127 -156 0 -3 -20 8
-43 24 -65 44 -160 98 -265 151 -73 37 -88 48 -70 52 44 8 123 7 159 -3z
m-176 -70 c50 -65 123 -115 156 -107 13 4 25 -2 36 -19 8 -14 14 -26 12 -28
-2 -2 -41 14 -86 35 -74 35 -87 46 -132 109 -62 85 -50 94 14 10z m-870 -5
c17 -7 23 -14 15 -14 -8 0 -28 6 -45 14 -16 7 -23 14 -15 14 8 0 29 -6 45 -14z
m-350 -5 c-3 -5 -12 -10 -18 -10 -7 0 -24 -7 -39 -14 -16 -8 -28 -10 -28 -5 0
10 56 38 78 39 7 0 10 -4 7 -10z m-115 -20 c0 -13 -78 -52 -93 -47 -7 2 11 16
38 30 59 31 55 29 55 17z m239 -27 c17 -10 31 -21 31 -25 0 -5 -31 -8 -69 -8
-68 0 -81 7 -81 41 0 16 87 10 119 -8z m3590 1 c2 -2 -2 -16 -9 -31 -7 -16
-15 -23 -17 -15 -3 8 -34 12 -108 12 l-103 0 -50 -67 c-120 -161 -288 -273
-481 -323 -90 -23 -314 -39 -324 -24 -3 5 34 10 86 10 132 2 293 38 367 83 8
5 29 15 45 22 117 52 279 201 328 299 l22 45 120 -3 c66 -2 122 -6 124 -8z
m-3722 -30 c-9 -10 -38 16 -31 28 4 6 13 4 22 -6 9 -8 13 -19 9 -22z m1481 -7
c98 -59 197 -142 234 -197 35 -51 160 -294 242 -470 19 -41 43 -87 52 -102 23
-35 14 -44 -25 -24 -17 9 -52 19 -78 23 -38 5 -56 14 -85 45 -55 57 -106 141
-148 243 -55 133 -165 349 -227 444 -58 90 -56 93 35 38z m2733 26 c-8 -16
-25 -17 -158 -14 -81 1 -150 4 -152 6 -1 2 0 8 4 14 4 7 62 11 161 11 144 0
154 -1 145 -17z m-4263 -11 c2 -8 -8 -12 -30 -12 -31 1 -32 1 -13 15 21 17 37
15 43 -3z m-748 -37 c0 -8 -4 -15 -9 -15 -13 0 -22 16 -14 24 11 11 23 6 23
-9z m173 -1 c20 -3 37 -10 37 -16 0 -6 -31 -7 -87 -3 -94 8 -103 10 -103 27 0
10 49 7 153 -8z m1012 -4 c-3 -5 -13 -10 -21 -10 -8 0 -14 5 -14 10 0 6 9 10
21 10 11 0 17 -4 14 -10z m161 -5 c17 -13 15 -14 -31 -14 -28 0 -58 6 -69 14
-18 14 -16 15 30 15 29 0 59 -6 70 -15z m59 4 c11 -17 0 -20 -21 -4 -17 13
-17 14 -2 15 9 0 20 -5 23 -11z m140 1 c3 -6 -5 -10 -19 -10 -14 0 -28 5 -31
10 -3 6 5 10 19 10 14 0 28 -4 31 -10z m95 -5 c0 -9 -9 -15 -24 -15 -15 0 -26
-7 -29 -17 -4 -17 -4 -17 -12 0 -12 28 2 47 35 47 20 0 30 -5 30 -15z m-664
-21 c55 -4 73 -10 82 -25 11 -17 8 -20 -22 -33 -35 -15 -93 -15 -115 -2 -7 4
-19 2 -27 -5 -12 -10 -18 -9 -31 3 -25 26 -6 38 58 38 45 0 59 -3 59 -14 0 -8
5 -18 11 -22 14 -8 44 20 35 34 -3 5 -108 13 -245 17 -132 4 -255 11 -273 15
-34 8 342 3 468 -6z m252 1 c1 -1 -27 -10 -63 -19 -46 -11 -71 -13 -83 -7 -15
9 -15 10 -1 11 9 0 19 6 22 14 5 11 19 13 64 9 32 -3 59 -7 61 -8z m1022 -241
c133 -266 150 -294 214 -361 22 -24 35 -43 29 -43 -12 0 -80 78 -124 140 -35
51 -267 521 -254 517 5 -1 66 -115 135 -253z m-1870 226 c12 -6 20 -13 18 -15
-6 -6 -121 16 -137 26 -23 15 91 4 119 -11z m1148 13 c-10 -2 -26 -2 -35 0
-10 3 -2 5 17 5 19 0 27 -2 18 -5z m2986 -20 c-4 -16 -22 -61 -41 -102 -18
-41 -41 -100 -49 -130 -21 -72 -63 -195 -104 -296 -55 -140 -117 -237 -177
-276 -51 -34 -47 -20 14 44 71 74 101 124 143 237 17 47 43 114 57 150 14 36
35 99 48 140 12 41 32 96 44 123 11 26 30 67 41 92 22 50 34 59 24 18z m431
17 c3 -5 -6 -32 -20 -60 -32 -62 -58 -65 -63 -7 -3 35 -2 37 27 37 38 0 40 13
4 27 l-28 11 37 1 c20 1 39 -3 43 -9z m-4660 -25 c114 -23 109 -19 83 -60 -23
-35 -41 -44 -54 -24 -3 6 -27 20 -53 31 -25 10 -54 27 -64 36 -10 9 -48 22
-85 29 l-67 13 80 -5 c44 -2 116 -11 160 -20z m235 -41 c0 -13 -35 0 -55 21
-40 39 -29 50 15 15 22 -17 40 -34 40 -36z m264 36 c23 -22 -9 -26 -86 -14
-46 8 -98 14 -116 14 -18 0 -31 4 -28 9 7 11 217 2 230 -9z m-2116 -14 c59
-13 179 -36 267 -51 87 -14 161 -27 163 -29 1 -2 -2 -24 -9 -49 -10 -43 -8
-55 26 -159 45 -134 62 -170 109 -227 44 -52 45 -76 6 -140 -89 -143 -193
-423 -213 -572 -7 -52 -17 -101 -21 -108 -4 -6 -29 -22 -54 -34 -59 -28 -93
-92 -103 -192 -9 -88 -22 -118 -70 -151 -30 -21 -53 -27 -117 -31 -92 -7 -172
3 -172 20 0 17 78 110 101 121 11 5 19 19 19 32 0 14 11 30 27 41 44 30 86 77
121 134 18 30 47 75 66 100 42 60 127 313 156 469 20 101 21 123 10 180 -16
86 -48 147 -123 234 -178 205 -338 436 -301 436 3 0 53 -11 112 -24z m1302 14
c0 -5 -11 -10 -24 -10 -14 0 -28 5 -31 10 -4 6 7 10 24 10 17 0 31 -4 31 -10z
m860 6 c0 -2 3 -11 6 -20 4 -11 1 -16 -10 -16 -9 0 -16 2 -16 4 0 2 -3 11 -6
20 -4 11 -1 16 10 16 9 0 16 -2 16 -4z m730 -21 c150 -36 341 -156 441 -278
60 -74 140 -234 166 -332 27 -106 25 -314 -5 -420 -49 -174 -144 -319 -280
-427 -370 -295 -920 -209 -1190 185 -40 58 -102 186 -106 218 -1 13 -9 38 -16
54 -8 18 -15 84 -18 165 -3 114 -1 149 17 225 78 325 346 573 676 625 77 12
231 4 315 -15z m3060 17 c0 -4 -31 -92 -70 -195 -38 -103 -70 -193 -70 -200 0
-33 -74 -227 -114 -300 -49 -89 -158 -211 -238 -265 l-48 -33 -75 32 c-41 17
-75 34 -75 37 0 12 153 101 163 95 5 -3 -13 -18 -40 -33 -87 -50 -92 -73 -20
-84 61 -9 89 4 173 85 126 123 186 228 249 437 19 64 51 162 71 217 20 55 45
126 56 158 12 31 25 57 29 57 5 0 9 -3 9 -8z m-3838 -80 c60 -9 108 -20 108
-24 0 -28 -103 -11 -267 43 -113 37 -134 56 -25 23 42 -13 125 -32 184 -42z
m4008 47 c15 -27 8 -32 -29 -24 -33 7 -46 19 -36 35 11 18 54 11 65 -11z
m-4257 -38 c32 -14 47 -26 47 -38 -1 -17 -1 -17 -11 -1 -5 10 -29 22 -52 29
-47 12 -87 35 -87 49 0 5 12 3 28 -5 15 -8 48 -23 75 -34z m2331 -84 c53 -32
161 -90 241 -128 80 -38 145 -71 145 -73 0 -7 -200 49 -339 95 l-132 44 -49
82 c-28 46 -50 85 -50 88 0 2 20 -8 44 -23 25 -15 88 -53 140 -85z m-2464 83
c-6 -11 -13 -20 -16 -20 -2 0 0 9 6 20 6 11 13 20 16 20 2 0 0 -9 -6 -20z
m4373 -6 c44 -10 32 -27 -15 -20 -22 4 -45 9 -50 12 -14 9 2 25 20 20 10 -3
29 -8 45 -12z m-4148 -4 c18 -8 17 -9 -7 -9 -16 -1 -28 4 -28 9 0 12 8 12 35
0z m-125 -22 c0 -13 -32 -6 -37 9 -3 7 3 9 16 6 12 -3 21 -10 21 -15z m-1157
-20 l88 -11 112 -112 c62 -62 122 -119 135 -127 36 -24 40 -77 10 -135 -63
-120 -101 -358 -77 -477 9 -47 9 -74 0 -117 -11 -53 -15 -57 -52 -72 -57 -23
-84 -85 -75 -176 6 -57 3 -72 -16 -110 -39 -75 -62 -86 -188 -86 -60 1 -112 4
-116 8 -8 7 103 147 117 147 5 0 12 8 16 18 4 9 19 36 36 60 16 24 42 84 59
135 59 184 105 567 79 663 -16 61 -72 118 -174 178 -170 100 -213 154 -171
215 18 26 8 26 217 -1z m1104 -13 c133 -17 248 -42 286 -62 45 -23 26 -25 -59
-9 -44 9 -148 20 -232 25 -88 6 -160 15 -168 22 -11 9 -14 8 -14 -2 0 -10 -3
-10 -12 -1 -16 16 -9 21 43 31 24 5 44 9 45 10 0 1 50 -6 111 -14z m362 9 c31
-6 31 -7 14 -26 -34 -38 -47 -39 -132 -9 -45 16 -85 32 -88 35 -8 8 166 8 206
0z m3921 -24 c12 -16 26 -30 32 -30 6 0 6 6 -2 15 -19 23 -6 28 14 6 17 -18
17 -19 -3 -26 -20 -6 -101 11 -101 21 0 12 21 44 30 44 5 0 18 -13 30 -30z
m-4503 5 c0 -8 -6 -15 -14 -15 -7 0 -13 7 -13 15 0 8 6 15 13 15 8 0 14 -7 14
-15z m4636 8 c-7 -2 -21 -2 -30 0 -10 3 -4 5 12 5 17 0 24 -2 18 -5z m-3 -35
c0 -8 -44 -1 -62 9 -23 12 -3 20 27 10 19 -6 35 -14 35 -19z m-135 -28 c31
-12 24 -30 -11 -30 -32 0 -66 18 -59 31 8 12 37 12 70 -1z m125 -11 c0 -23
-22 -49 -40 -49 -27 0 -25 24 3 43 26 19 37 21 37 6z m-4570 -7 c0 -5 -7 -29
-16 -55 -18 -52 -31 -57 -74 -27 -24 17 -27 25 -21 48 6 22 15 28 47 33 61 10
64 10 64 1z m52 -24 c-11 -18 -22 -46 -26 -61 -4 -15 -11 -25 -16 -22 -8 5 -2
28 25 103 2 6 12 12 21 12 14 0 13 -4 -4 -32z m202 22 c35 -1 49 -8 96 -50
l55 -50 -36 -36 c-36 -36 -39 -37 -108 -35 -64 1 -137 18 -183 42 -16 8 -16
13 -2 51 28 80 40 91 91 84 25 -3 64 -6 87 -6z m148 -40 c44 -40 14 -40 -32 0
-26 21 -30 29 -18 30 10 0 32 -13 50 -30z m3993 20 c8 -13 -5 -13 -25 0 -13 8
-13 10 2 10 9 0 20 -4 23 -10z m-1580 -96 l70 -19 3 -140 c1 -77 0 -149 -2
-161 -4 -13 -19 -25 -38 -31 -33 -11 -33 -11 -5 -12 30 -1 36 -15 11 -25 -26
-10 -134 -7 -134 4 0 6 0 13 0 18 1 4 13 5 28 4 26 -4 26 -3 -8 20 -19 13 -47
44 -62 68 -24 39 -158 344 -158 361 0 3 51 -11 113 -31 61 -20 144 -45 182
-56z m1615 52 l45 -14 -29 -11 c-39 -15 -118 -33 -123 -27 -10 9 29 66 45 66
9 0 37 -7 62 -14z m110 -20 c-18 -17 -254 -96 -287 -96 -13 0 -23 4 -23 9 0
11 6 13 120 40 47 11 108 29 135 40 60 24 74 26 55 7z m-1298 -75 c146 -34
371 -61 565 -66 103 -3 189 -8 191 -10 22 -22 -310 -9 -533 20 -123 16 -288
51 -315 66 -24 14 2 11 92 -10z m-3234 -53 c-12 -66 3 -201 32 -289 30 -90 89
-185 166 -269 36 -39 63 -74 60 -77 -19 -19 -160 144 -209 243 -55 110 -72
181 -72 304 0 114 7 156 24 146 5 -3 4 -28 -1 -58z m3048 36 l112 -25 4 -82
c4 -52 1 -87 -5 -96 -6 -7 -35 -27 -64 -43 -29 -16 -53 -37 -53 -45 0 -11 -7
-14 -27 -10 -16 4 -45 10 -66 14 l-38 8 0 148 c0 81 1 149 1 152 0 9 24 6 136
-21z m-2893 -21 c26 -8 47 -17 47 -19 0 -14 -64 -29 -109 -26 -48 4 -51 5 -51
31 0 46 9 47 113 14z m4115 -180 c-101 -99 -201 -196 -223 -214 l-40 -34 39
47 c45 56 395 392 402 386 2 -3 -78 -86 -178 -185z m-8 37 c-79 -76 -146 -138
-147 -136 -2 1 16 54 40 117 l43 114 55 12 c30 7 70 17 89 22 19 4 42 9 50 9
8 1 -50 -61 -130 -138z m-1008 120 l37 -11 -35 -49 c-20 -28 -40 -50 -45 -50
-5 0 -9 27 -9 60 0 33 3 60 8 60 4 0 24 -5 44 -10z m1263 -47 c0 -32 -5 -63
-11 -69 -11 -13 -138 -494 -131 -500 2 -2 30 93 61 213 69 257 77 280 72 198
-2 -33 -27 -141 -55 -240 -28 -99 -49 -188 -47 -197 3 -12 -2 -18 -15 -18 -11
0 -19 7 -19 18 0 13 -2 14 -9 3 -7 -11 -15 -11 -47 -1 -102 32 -289 150 -289
180 0 16 463 469 480 470 6 0 10 -26 10 -57z m-4217 35 c-3 -7 -22 -14 -44
-15 l-39 -2 35 14 c45 17 53 18 48 3z m3014 -35 c-26 -37 -102 -109 -102 -99
0 5 20 31 45 57 25 26 45 53 45 59 0 5 7 10 16 10 13 0 12 -4 -4 -27z m108 6
c0 -29 -164 -219 -190 -219 -21 0 -9 19 35 54 46 39 135 147 135 165 0 6 5 11
10 11 6 0 10 -5 10 -11z m-3338 -11 c-17 -8 -26 -8 -34 0 -9 9 -4 12 23 11 32
0 33 -1 11 -11z m3553 -8 c14 -5 27 -27 39 -66 10 -33 36 -95 57 -138 22 -44
37 -86 35 -93 -3 -7 -44 -38 -92 -70 l-87 -56 29 -16 29 -16 -28 -3 c-16 -2
-39 5 -56 17 -26 19 -44 21 -161 21 l-131 0 -15 35 c-8 19 -17 61 -20 93 l-6
58 48 36 c62 46 91 77 143 155 l42 61 77 -5 c42 -3 86 -9 97 -13z m-3472 3
c-7 -2 -19 -2 -25 0 -7 3 -2 5 12 5 14 0 19 -2 13 -5z m3593 -33 c7 -14 30
-64 52 -112 l40 -86 -22 -21 -22 -20 -42 83 c-40 79 -72 158 -72 178 0 20 55
2 66 -22z m224 18 c0 -36 -98 -198 -119 -198 -10 0 -70 130 -78 170 -6 33 3
36 125 39 52 1 72 -3 72 -11z m-3862 -26 c2 -7 -3 -12 -12 -12 -9 0 -16 7 -16
16 0 17 22 14 28 -4z m-11 -42 c7 0 39 -12 73 -27 56 -24 60 -28 56 -52 -3
-14 -8 -49 -11 -77 -6 -47 -11 -55 -50 -83 -24 -17 -45 -31 -48 -31 -2 0 -18
31 -36 69 -35 77 -68 210 -57 236 6 16 9 16 34 -8 16 -15 33 -27 39 -27z m153
32 c0 -10 -6 -25 -12 -34 -12 -14 -17 -14 -55 3 -63 27 -57 49 12 49 46 0 55
-3 55 -18z m1668 -8 c18 -12 33 -64 18 -64 -2 0 -11 -3 -19 -6 -11 -4 -19 5
-26 33 -17 60 -13 65 27 37z m1182 -113 c0 -5 16 -15 35 -22 19 -7 35 -17 35
-21 0 -12 -14 -10 -66 13 -37 15 -45 22 -34 29 19 12 30 12 30 1z m-142 -33
c22 -22 13 -28 -39 -28 -54 0 -65 18 -18 31 36 10 44 10 57 -3z m149 -23 c19
-8 43 -15 53 -15 19 0 30 -19 30 -49 0 -10 8 -43 18 -73 l18 -55 -104 -6 c-57
-3 -107 -8 -110 -11 -2 -3 1 -12 8 -21 16 -19 7 -19 -31 1 -17 8 -58 20 -92
25 -39 7 -71 18 -86 32 -21 20 -81 114 -81 128 0 13 70 20 194 20 69 0 128 5
131 10 4 5 1 9 -4 9 -6 0 -11 5 -11 10 0 14 25 12 67 -5z m1439 -129 c14 -48
43 -126 65 -173 21 -47 39 -87 39 -89 0 -6 -193 -4 -216 2 l-21 6 28 91 c15
51 38 129 50 175 12 46 23 81 25 79 3 -2 16 -43 30 -91z m-4336 24 c0 -5 -8
-10 -19 -10 -10 0 -24 -7 -31 -15 -7 -8 -18 -15 -24 -15 -15 1 46 50 62 50 6
0 12 -4 12 -10z m4 -62 c3 -13 6 -36 6 -52 l0 -30 -30 29 c-35 33 -37 43 -12
61 24 18 29 17 36 -8z m3981 -153 c141 -69 202 -85 353 -92 110 -5 124 -8 137
-27 8 -11 15 -24 15 -28 0 -12 -204 -10 -280 3 -157 24 -338 113 -455 220
l-46 42 22 23 22 23 61 -55 c40 -36 98 -73 171 -109z m-1001 34 c5 -4 -7 -4
-26 0 -40 9 -111 54 -101 64 5 6 104 -44 127 -64z m6 37 c39 -19 67 -37 62
-40 -8 -5 -152 61 -152 70 0 10 23 2 90 -30z m86 -2 c41 -19 74 -37 74 -39 0
-2 -24 6 -52 17 -29 11 -66 24 -83 30 -39 14 -55 28 -31 28 10 0 51 -16 92
-36z m84 1 c36 -19 59 -35 53 -35 -19 0 -142 51 -149 61 -12 20 36 7 96 -26z
m75 4 c88 -50 68 -48 -45 4 -39 18 -48 26 -32 26 12 1 47 -13 77 -30z m66 6
c24 -14 40 -25 36 -25 -17 0 -108 33 -113 41 -11 18 35 8 77 -16z"/>
<path d="M6869 4160 c-42 -22 -69 -50 -49 -50 19 0 100 49 100 60 0 14 -10 12
-51 -10z"/>
<path d="M7820 3932 c0 -10 83 -92 93 -92 14 0 7 17 -25 58 -28 37 -68 57 -68
34z"/>
<path d="M6895 3989 c-77 -4 -336 -17 -575 -28 -463 -23 -652 -45 -310 -35
107 3 258 9 335 14 77 5 311 16 519 25 208 9 388 21 400 25 25 11 -169 10
-369 -1z"/>
<path d="M7426 3948 c13 -44 35 -78 49 -78 12 0 10 10 -10 50 -26 51 -52 69
-39 28z"/>
<path d="M5092 3543 c64 -84 111 -184 223 -475 49 -125 90 -226 93 -224 7 7
-25 98 -115 326 -97 247 -139 332 -195 395 -60 68 -64 54 -6 -22z"/>
<path d="M6967 3532 c-11 -54 -19 -438 -9 -422 13 22 35 416 24 436 -7 13 -10
11 -15 -14z"/>
<path d="M7027 3370 c-6 -24 2 -60 14 -60 5 0 9 18 9 40 0 42 -14 54 -23 20z"/>
<path d="M4031 2731 c-17 -11 -9 -15 66 -36 39 -11 77 -30 103 -52 43 -37 53
-32 19 11 -37 47 -157 96 -188 77z"/>
<path d="M4200 2592 c-1 -33 24 -102 36 -102 8 0 14 6 14 13 -1 17 -49 105
-50 89z"/>
<path d="M3070 3645 c0 -11 9 -58 20 -105 11 -47 20 -111 20 -142 0 -32 5 -58
10 -58 16 0 11 95 -11 203 -19 95 -39 148 -39 102z"/>
<path d="M2925 3600 c-8 -13 3 -30 21 -30 18 0 18 14 0 29 -10 8 -16 9 -21 1z"/>
<path d="M2975 3529 c-8 -37 5 -54 34 -44 28 9 27 39 -3 59 -24 15 -25 15 -31
-15z"/>
<path d="M7605 3510 c-38 -17 -76 -37 -85 -46 -8 -8 21 1 65 21 44 20 84 40
90 46 13 13 7 11 -70 -21z"/>
<path d="M10465 3132 c-28 -15 -51 -35 -53 -46 -4 -19 -3 -19 19 -3 13 10 44
31 68 47 56 37 33 39 -34 2z"/>
<path d="M10484 3101 c-72 -47 -112 -88 -122 -127 -12 -42 -4 -63 24 -70 19
-5 23 -11 19 -25 -10 -29 4 -23 84 39 73 56 117 109 53 64 -46 -34 -50 -26 -6
13 34 31 36 35 14 29 -23 -6 -24 -5 -10 11 15 18 24 105 11 105 -4 0 -34 -17
-67 -39z"/>
<path d="M10506 2915 c-59 -41 -75 -56 -62 -61 28 -11 61 4 109 49 43 39 59
67 40 67 -5 0 -44 -25 -87 -55z"/>
<path d="M10545 2700 c-7 -11 35 -31 48 -23 11 6 -12 33 -29 33 -7 0 -16 -5
-19 -10z"/>
<path d="M10386 2471 c-8 -9 -22 -33 -31 -54 -14 -34 -14 -37 4 -47 38 -20 60
-12 81 29 23 45 19 64 -15 79 -18 9 -26 7 -39 -7z"/>
<path d="M11555 2776 c-185 -28 -280 -65 -430 -166 -224 -151 -383 -386 -438
-645 -70 -327 23 -669 248 -914 38 -42 79 -83 91 -91 188 -132 285 -178 464
-222 84 -20 327 -17 425 6 148 34 297 109 435 220 36 29 73 55 83 59 9 3 17
13 17 20 0 8 16 34 35 58 19 24 35 49 35 55 0 7 7 14 15 17 25 10 123 226 150
332 21 83 25 124 25 242 0 199 -30 332 -114 495 -101 199 -278 361 -502 464
-143 65 -372 95 -539 70z m211 -27 c32 -6 62 -14 67 -18 6 -6 -11 -97 -100
-525 -6 -26 -8 -28 -42 -22 -20 3 -46 6 -57 6 -18 0 -22 8 -27 44 -8 59 -42
156 -84 239 -38 76 -40 65 31 181 20 33 36 68 36 77 0 27 80 36 176 18z m119
-17 c-3 -9 -28 -124 -55 -256 -73 -360 -120 -580 -125 -585 -3 -2 -8 -1 -11 2
-7 7 3 68 36 217 10 47 42 207 70 355 62 321 56 296 75 289 10 -4 14 -13 10
-22z m-370 -69 c-41 -77 -73 -119 -81 -110 -4 3 15 43 42 89 58 101 67 114 72
99 2 -6 -13 -41 -33 -78z m460 43 c95 -25 319 -156 313 -182 -3 -14 -266 -332
-293 -354 -15 -12 -29 -12 -97 2 -44 10 -83 20 -86 23 -5 5 83 477 96 513 5
15 5 15 67 -2z m-550 -220 c126 -347 205 -575 205 -593 0 -39 -23 15 -110 257
-50 140 -115 320 -144 400 -48 131 -59 177 -35 153 4 -4 42 -102 84 -217z
m920 44 c3 -5 -67 -96 -156 -202 -89 -106 -216 -259 -283 -340 -69 -84 -128
-147 -138 -147 -10 -1 -18 1 -18 4 0 3 109 134 241 292 133 159 262 314 287
346 46 58 56 65 67 47z m-841 -94 c32 -67 76 -202 76 -230 -1 -20 -1 -20 -15
-2 -14 18 -105 257 -105 276 0 26 21 5 44 -44z m883 16 c73 -57 244 -353 215
-371 -7 -4 -69 -27 -137 -50 l-125 -43 -93 26 c-161 46 -208 62 -207 72 0 5
20 9 45 9 48 0 71 15 62 39 -9 23 -54 20 -62 -4 -6 -18 -25 -29 -25 -14 0 10
265 333 284 346 15 11 18 10 43 -10z m-1073 -33 c-19 -18 -37 -21 -170 -26
-130 -5 -151 -4 -163 10 -20 24 -8 26 169 30 85 1 162 4 170 5 10 1 8 -4 -6
-19z m120 -77 c14 -40 26 -77 26 -82 0 -6 -17 -17 -37 -26 -32 -13 -46 -14
-93 -4 -116 26 -115 20 -20 115 46 47 87 81 91 77 4 -4 19 -40 33 -80z m-357
-44 c76 -68 150 -134 167 -148 78 -66 294 -260 315 -284 16 -17 21 -30 15 -36
-6 -6 -100 71 -259 212 -348 308 -398 355 -390 367 3 6 8 11 11 11 2 0 66 -55
141 -122z m-131 13 c-8 -12 -66 -4 -81 12 -7 7 -4 8 7 4 10 -4 28 -2 40 2 25
10 44 -1 34 -18z m194 9 c0 -15 -27 -23 -47 -15 -17 7 -16 8 2 15 28 12 45 12
45 0z m35 -20 c-16 -16 -33 -30 -39 -30 -5 0 3 14 19 30 16 17 33 30 39 30 5
0 -3 -13 -19 -30z m-321 -36 c9 -3 16 -10 16 -15 0 -15 -72 -89 -86 -89 -19 0
-18 3 11 60 26 51 31 55 59 44z m411 -34 l20 -9 -20 0 c-11 0 -29 4 -40 9
l-20 9 20 0 c11 0 29 -4 40 -9z m-265 -14 c0 -12 -82 -71 -109 -79 -19 -5 -12
16 18 54 24 29 39 39 61 39 19 0 30 -5 30 -14z m63 -1 c0 -6 -22 -25 -49 -43
-48 -32 -276 -152 -289 -152 -23 0 22 29 121 76 62 31 133 73 156 94 42 38 58
45 61 25z m211 -10 c55 -9 59 -20 9 -30 -31 -6 -40 -3 -62 21 -16 17 -20 25
-10 21 9 -3 37 -9 63 -12z m213 -11 c-3 -3 -12 -4 -19 -1 -8 3 -5 6 6 6 11 1
17 -2 13 -5z m-362 -34 c-3 -5 -13 -10 -21 -10 -8 0 -12 5 -9 10 3 6 13 10 21
10 8 0 12 -4 9 -10z m369 1 c3 -5 -37 -12 -89 -16 -52 -4 -95 -10 -95 -14 0
-4 38 -5 85 -3 145 8 158 -20 15 -32 -73 -5 -76 -5 -107 24 -18 16 -33 32 -33
34 0 15 215 22 224 7z m221 0 c3 -5 2 -11 -2 -13 -16 -8 -133 4 -133 13 0 12
127 12 135 0z m167 -2 c29 -6 58 -16 63 -21 7 -7 3 -8 -10 -5 -11 3 -46 9 -77
13 -32 3 -58 10 -58 15 0 12 18 11 82 -2z m-712 -29 c19 -12 11 -14 -92 -33
-80 -14 -96 -10 -54 12 48 26 121 37 146 21z m960 -11 c0 -5 -4 -9 -10 -9 -5
0 -10 7 -10 16 0 8 5 12 10 9 6 -3 10 -10 10 -16z m-425 1 c4 -6 -15 -10 -49
-10 -30 0 -58 5 -61 10 -4 6 15 10 49 10 30 0 58 -4 61 -10z m200 1 c34 -7 43
-38 10 -33 -11 1 -42 6 -69 10 -64 9 -75 32 -14 31 24 -1 57 -4 73 -8z m-1107
-22 c-5 -14 -68 -41 -68 -29 0 6 5 10 11 10 6 0 9 7 5 15 -4 11 2 15 25 15 18
0 29 -5 27 -11z m408 -9 c8 0 14 -4 14 -8 0 -5 -78 -28 -172 -52 -95 -24 -198
-51 -228 -61 -91 -30 -84 -4 11 40 95 45 305 96 347 84 8 -1 20 -3 28 -3z
m1444 -35 c-1 -5 -97 -41 -213 -78 -117 -38 -294 -95 -395 -128 -100 -32 -190
-59 -200 -59 -43 1 31 32 256 105 130 42 302 99 382 126 142 48 172 54 170 34z
m-1126 -11 c9 -23 7 -102 -2 -108 -9 -6 -132 101 -132 115 0 5 29 9 64 9 49 0
65 -4 70 -16z m168 -29 c-2 -22 -8 -58 -14 -80 l-11 -40 -23 69 c-32 94 -32
98 14 94 37 -3 37 -3 34 -43z m197 30 c5 -5 -129 -165 -138 -165 -4 0 -2 33 6
73 22 116 17 110 76 102 29 -3 53 -8 56 -10z m-508 -102 c61 -53 107 -99 101
-101 -5 -1 -70 13 -143 33 -74 20 -186 47 -249 61 -149 33 -151 34 -121 45 31
12 248 57 278 58 14 1 62 -34 134 -96z m812 61 c53 -10 97 -21 97 -25 0 -7
-463 -160 -468 -154 -2 2 33 50 79 106 l83 101 56 -5 c30 -3 99 -13 153 -23z
m-614 -87 c1 -22 -3 -28 -16 -25 -20 4 -29 54 -18 97 l7 26 13 -35 c8 -19 14
-48 14 -63z m1081 -40 c12 -89 9 -251 -3 -264 -3 -3 -39 0 -79 7 -162 26 -522
91 -526 94 -2 2 46 15 106 30 178 41 395 105 404 119 19 30 -6 58 -65 73 -38
9 -25 19 63 48 89 29 81 36 100 -107z m-1660 19 c322 -60 467 -85 510 -88 30
-3 35 -7 38 -32 3 -25 1 -28 -15 -21 -19 9 -151 36 -558 115 -143 28 -266 53
-273 55 -24 8 -1 26 26 21 15 -3 137 -26 272 -50z m1483 15 c5 -5 7 -19 5 -31
-4 -29 -72 -52 -269 -89 -199 -38 -309 -52 -329 -41 -18 10 39 37 146 68 38
11 132 41 209 66 110 36 150 45 185 41 24 -3 48 -9 53 -14z m-1742 -126 c9
-50 26 -134 36 -187 11 -54 16 -98 11 -98 -4 0 -8 3 -8 8 0 30 -73 348 -80
350 -17 6 -11 24 7 20 13 -2 21 -25 34 -93z m49 70 c7 -9 11 -18 8 -20 -9 -10
-38 7 -38 21 0 18 14 18 30 -1z m870 7 c0 -5 -14 -21 -30 -37 -37 -35 -53 -86
-39 -123 14 -36 49 -72 70 -72 10 0 21 -4 24 -10 4 -6 -6 -10 -23 -10 -62 0
-115 95 -92 166 16 48 90 119 90 86z m65 -2 c4 -6 -5 -10 -19 -10 -14 0 -26 5
-26 10 0 6 9 10 19 10 11 0 23 -4 26 -10z m-771 -135 c64 -68 116 -128 116
-134 0 -5 -42 34 -93 87 -128 132 -173 183 -155 177 9 -4 68 -62 132 -130z
m71 100 c165 -29 349 -66 355 -72 3 -3 -15 -3 -40 0 -25 4 -92 11 -150 17
-127 13 -246 37 -280 55 l-25 14 25 1 c14 0 66 -7 115 -15z m-316 -32 c5 -21
22 -98 37 -171 24 -114 26 -135 13 -143 -27 -17 -44 -4 -57 46 -18 67 -29 305
-14 305 6 0 16 -17 21 -37z m1104 -4 c29 -36 25 -104 -9 -139 -37 -38 -97 -35
-135 8 -33 36 -35 57 -14 108 26 63 114 76 158 23z m-153 27 c0 -2 -7 -17 -15
-32 -8 -16 -15 -49 -15 -74 -1 -43 -1 -44 -16 -25 -18 23 -13 75 11 111 13 20
35 33 35 20z m-824 -23 c27 -16 214 -203 214 -215 0 -8 -209 -72 -216 -66 -8
9 -62 281 -57 291 7 12 26 8 59 -10z m391 -69 c95 -15 169 -31 165 -35 -6 -6
-254 -89 -265 -89 -7 0 -161 160 -165 170 -2 5 18 3 45 -4 26 -7 126 -26 220
-42z m780 -14 c80 -17 261 -50 401 -75 140 -25 259 -48 264 -51 4 -3 8 -12 8
-21 0 -10 -5 -13 -17 -8 -10 3 -117 24 -238 46 -499 89 -570 104 -573 122 -2
9 -1 17 3 17 3 0 72 -14 152 -30z m-457 1 c0 -5 3 -16 6 -25 4 -11 -1 -15 -23
-14 -28 0 -312 -82 -523 -152 -208 -68 -280 -89 -286 -79 -3 5 1 11 8 14 7 2
105 34 218 70 113 37 291 95 395 130 211 70 205 69 205 56z m465 -71 c66 -12
163 -30 215 -40 52 -10 162 -31 245 -45 82 -15 153 -29 157 -31 13 -8 10 -20
-31 -130 -41 -108 -135 -264 -159 -264 -7 0 -77 55 -155 123 -77 67 -188 163
-246 213 -163 139 -225 214 -168 201 12 -3 76 -15 142 -27z m-131 -50 c54 -53
241 -216 444 -389 67 -57 122 -106 122 -110 0 -4 -5 -12 -11 -18 -9 -9 -37 12
-113 80 -56 51 -180 162 -276 247 -221 197 -230 205 -230 224 0 24 8 20 64
-34z m-394 30 c0 -30 -68 -136 -144 -226 -93 -110 -165 -162 -312 -227 -104
-45 -137 -52 -154 -32 -17 20 -9 26 60 50 195 65 349 186 466 363 48 72 84
103 84 72z m100 1 c0 -5 -12 -24 -27 -43 -22 -26 -368 -434 -495 -582 -29 -35
-50 -28 -28 9 29 47 525 624 538 625 6 0 12 -4 12 -9z m-170 -17 c0 -7 -72
-111 -104 -149 l-25 -30 -50 50 c-28 27 -51 53 -51 57 0 4 48 23 108 42 112
37 122 39 122 30z m384 -187 c38 -100 102 -274 142 -386 41 -112 79 -210 85
-217 12 -15 -8 -31 -21 -18 -8 8 -77 192 -210 554 -21 58 -50 135 -64 173 -30
78 -30 77 -13 77 6 0 42 -81 81 -183z m59 109 c271 -247 351 -319 430 -386 49
-41 86 -81 85 -89 -7 -35 -272 -221 -315 -221 -5 0 -26 44 -46 98 -20 53 -84
224 -142 380 -58 155 -105 285 -105 287 0 13 18 -1 93 -69z m-219 32 c-3 -18
-26 -132 -50 -253 -106 -524 -110 -540 -127 -543 -14 -3 -16 1 -8 22 6 13 44
195 86 403 85 423 81 403 94 403 6 0 8 -14 5 -32z m91 -70 c21 -57 84 -228
141 -380 56 -152 104 -285 106 -294 5 -32 -132 -64 -304 -71 -131 -5 -148 -4
-154 10 -3 9 17 130 45 269 27 139 62 316 76 393 30 161 33 175 45 175 4 0 25
-46 45 -102z m-131 65 c-2 -10 -38 -187 -79 -393 -42 -206 -80 -379 -85 -384
-26 -26 -360 131 -360 170 0 11 46 67 250 305 69 80 157 185 195 232 71 88 86
101 79 70z m-374 -118 c23 -16 37 -31 30 -33 -13 -5 -120 96 -120 113 0 5 11
-4 24 -21 14 -16 43 -43 66 -59z m-58 18 c32 -32 58 -65 58 -74 0 -29 -171
-135 -280 -174 -24 -8 -45 -13 -48 -11 -7 7 -41 177 -42 207 0 19 8 29 28 39
35 17 193 68 212 69 8 1 40 -25 72 -56z m-326 -153 c21 -103 23 -132 10 -119
-4 4 -56 224 -56 236 0 3 5 3 11 1 7 -2 22 -55 35 -118z m-52 93 c13 -47 28
-144 22 -150 -3 -3 -22 29 -42 72 -28 62 -33 79 -22 86 21 14 36 10 42 -8z
m313 -280 c-30 -37 -66 -78 -79 -90 l-24 -23 -39 40 c-21 22 -37 41 -34 43 2
2 40 18 84 35 44 18 94 41 110 51 17 10 32 17 34 15 2 -2 -21 -34 -52 -71z"/>
<path d="M11693 1778 c-22 -36 -19 -79 8 -101 29 -24 57 -18 82 15 20 27 20
29 4 63 -14 30 -22 35 -51 35 -19 0 -38 -6 -43 -12z m81 -24 c17 -45 -7 -81
-48 -70 -28 7 -38 28 -30 62 5 19 13 24 39 24 21 0 35 -6 39 -16z"/>
<path d="M4906 1678 c-15 -17 -16 -22 -5 -29 35 -22 65 -4 54 31 -8 25 -25 24
-49 -2z"/>
<path d="M4420 700 c-12 -8 -12 -10 3 -16 22 -8 50 3 42 16 -8 12 -25 13 -45
0z"/>
<path d="M4545 703 c-27 -7 -46 -23 -39 -35 3 -5 11 -4 20 3 7 6 20 9 28 6 14
-5 36 10 36 25 0 9 -13 9 -45 1z"/>
<path d="M7010 2233 c-53 -9 -158 -46 -220 -79 -193 -101 -337 -287 -391 -504
-30 -120 -23 -301 16 -410 14 -41 32 -91 38 -110 6 -19 14 -37 17 -40 3 -3 31
-39 62 -81 112 -151 286 -260 475 -298 124 -26 173 -26 288 -2 134 27 229 71
326 149 137 110 223 241 271 410 33 116 30 286 -6 405 -87 291 -292 486 -576
552 -60 14 -237 19 -300 8z m180 -13 c0 -6 -36 -9 -92 -8 -76 1 -84 2 -48 8
71 11 140 11 140 0z m84 -6 c27 -10 7 -24 -36 -24 -35 0 -39 2 -28 15 13 16
38 19 64 9z m-270 -116 c46 -47 46 -55 -1 -27 -68 39 -86 72 -73 129 0 3 9
-11 19 -30 11 -19 35 -52 55 -72z m336 82 c0 -11 -11 -73 -25 -137 -14 -65
-39 -188 -56 -273 -32 -155 -43 -186 -58 -162 -6 10 71 432 104 570 7 27 35
29 35 2z m-315 -10 c-13 -22 17 -40 65 -40 30 0 52 -6 60 -15 10 -12 6 -17
-25 -32 -42 -20 -58 -14 -92 37 -25 35 -30 60 -12 60 5 0 7 -5 4 -10z m-31
-267 c65 -148 120 -275 123 -285 3 -10 -3 -21 -17 -28 -23 -13 -43 -4 -21 9
12 8 -53 167 -192 463 -43 93 -47 108 -22 108 6 0 64 -120 129 -267z m481 240
c19 -9 35 -20 35 -24 0 -15 -61 -58 -75 -53 -7 3 -17 19 -20 35 -4 16 -11 31
-16 34 -5 4 -9 10 -9 16 0 15 46 11 85 -8z m-195 -13 c0 -24 -7 -25 -51 -6
l-34 14 30 5 c17 2 36 5 43 6 6 0 12 -8 12 -19z m-437 -17 c11 -7 8 -27 -6
-47 -13 -17 -19 -18 -65 -6 -29 6 -55 16 -58 21 -3 5 10 18 28 29 30 19 72 20
101 3z m187 -81 c0 -2 -13 -2 -30 0 -16 3 -30 1 -30 -3 0 -9 27 -19 53 -19 18
0 19 -2 7 -10 -33 -21 -56 -11 -78 35 -12 25 -22 50 -22 55 0 5 23 -5 50 -22
28 -17 50 -33 50 -36z m235 49 c3 -6 0 -29 -6 -53 -6 -24 -14 -62 -18 -86 -4
-23 -11 -46 -15 -50 -4 -4 -51 -9 -104 -11 -83 -3 -97 -1 -109 15 -20 27 -16
34 22 34 33 0 34 1 29 29 -4 18 -1 37 8 50 l15 21 19 -22 c19 -21 19 -21 -3
-16 -25 7 -35 -9 -26 -41 5 -19 13 -21 69 -21 53 0 66 3 70 18 3 9 9 24 14 34
13 24 -9 38 -69 45 -51 6 -72 23 -28 23 12 0 36 9 52 20 32 21 70 26 80 11z
m365 -46 l44 -45 -20 -27 c-34 -46 -65 -59 -103 -43 -29 12 -30 14 -16 30 22
24 19 61 -5 67 -11 3 -20 9 -20 13 0 10 51 49 65 50 6 0 31 -20 55 -45z m-760
19 c0 -8 -5 -12 -10 -9 -6 4 -8 11 -5 16 9 14 15 11 15 -7z m-50 -20 c41 -10
69 -19 61 -22 -21 -7 -163 19 -191 35 -24 14 -24 14 15 9 22 -3 74 -13 115
-22z m-149 -41 c10 -28 0 -43 -32 -43 -9 0 -31 -3 -49 -6 l-32 -7 17 27 c16
24 58 55 78 56 4 0 12 -12 18 -27z m48 -2 c6 -10 7 -21 4 -25 -9 -8 -33 14
-33 30 0 20 18 17 29 -5z m79 13 c18 -5 20 -9 11 -20 -10 -12 -69 -21 -69 -10
0 2 -3 11 -6 20 -7 17 20 21 64 10z m692 -36 c0 -10 -4 -18 -10 -18 -5 0 -10
15 -10 33 0 24 3 28 10 17 5 -8 10 -23 10 -32z m-297 25 c-7 -2 -21 -2 -30 0
-10 3 -4 5 12 5 17 0 24 -2 18 -5z m257 -36 c0 -5 -4 -5 -10 -2 -5 3 -10 14
-10 23 0 15 2 15 10 2 5 -8 10 -19 10 -23z m-67 16 c-7 -2 -19 -2 -25 0 -7 3
-2 5 12 5 14 0 19 -2 13 -5z m322 -14 c4 -6 -13 -29 -38 -52 -284 -265 -380
-353 -389 -356 -5 -2 -8 4 -6 13 3 16 406 404 420 405 4 1 10 -4 13 -10z m51
-64 c15 -20 25 -37 22 -40 -5 -5 -84 18 -94 28 -8 7 23 47 37 47 4 0 20 -16
35 -35z m-1021 10 c-36 -17 -62 -19 -70 -6 -3 6 14 12 37 14 24 2 48 4 53 4 6
1 -3 -5 -20 -12z m95 5 c0 -5 -4 -10 -10 -10 -5 0 -10 5 -10 10 0 6 5 10 10
10 6 0 10 -4 10 -10z m66 -5 c-25 -19 -46 -19 -46 0 0 10 10 15 33 15 30 -1
31 -1 13 -15z m-245 -15 c23 -13 25 -28 4 -37 -16 -5 -55 22 -55 39 0 11 27
10 51 -2z m289 1 c0 -13 -41 -41 -58 -41 -20 0 -9 23 19 37 29 15 39 16 39 4z
m518 -55 c3 -54 -8 -86 -29 -86 -13 0 -11 28 6 59 10 21 12 37 5 60 -7 24 -6
31 3 28 7 -2 13 -28 15 -61z m-863 34 c22 -24 14 -25 -28 -4 -68 34 -1 -14
128 -91 72 -43 157 -97 190 -120 33 -23 81 -54 108 -69 26 -15 47 -31 47 -36
0 -16 -36 -11 -61 8 -13 10 -126 79 -251 153 -126 74 -228 140 -228 147 0 13
33 30 61 31 9 1 24 -8 34 -19z m220 5 c18 -9 37 -27 43 -40 10 -22 18 -25 66
-25 47 0 57 -3 67 -22 11 -20 10 -21 -2 -11 -8 7 -44 13 -79 15 -59 3 -65 5
-70 28 -5 23 -11 25 -72 28 -64 3 -66 2 -76 -25 l-10 -28 -1 32 c-2 57 64 81
134 48z m569 -1 c3 -9 6 -27 6 -40 0 -22 -4 -24 -50 -24 -49 0 -50 1 -50 30 0
22 6 33 23 40 35 14 64 12 71 -6z m165 0 c3 -2 -9 -18 -25 -35 l-29 -31 -6 34
c-3 18 -3 37 -1 41 4 8 52 1 61 -9z m-330 -41 c0 -10 -4 -27 -9 -38 -7 -17 -9
-17 -9 -2 -1 15 -12 17 -76 17 -127 0 -77 34 58 39 29 1 37 -3 36 -16z m564
-22 c32 -13 64 -74 69 -135 3 -38 2 -40 -32 -47 -98 -21 -350 -47 -350 -36 0
2 5 29 11 61 9 53 16 62 81 125 l72 68 60 -13 c34 -7 74 -17 89 -23z m-1268 9
c3 -5 -3 -10 -14 -10 -12 0 -21 5 -21 10 0 6 6 10 14 10 8 0 18 -4 21 -10z
m-12 -37 c-7 -2 -19 -2 -25 0 -7 3 -2 5 12 5 14 0 19 -2 13 -5z m353 -8 c26
-19 -1 -20 -36 0 -23 13 -23 14 -4 15 11 0 29 -7 40 -15z m-216 -45 c0 -10
-19 -33 -42 -51 -24 -19 -46 -38 -50 -43 -4 -6 -11 -7 -15 -2 -4 4 4 16 19 27
39 29 75 62 58 53 -8 -4 -36 -22 -62 -41 -40 -29 -52 -33 -83 -27 -45 8 -51
21 -31 67 l15 36 88 3 c101 3 103 3 103 -22z m397 -44 c13 -32 21 -62 16 -67
-11 -11 -165 109 -157 122 3 6 31 9 61 7 l55 -3 25 -59z m150 56 c9 -5 9 -20
1 -57 -12 -60 -11 -58 -37 -50 -20 6 -41 36 -61 90 -9 25 -9 25 38 25 26 0 52
-4 59 -8z m203 -11 c0 -10 -27 -44 -61 -75 -46 -43 -64 -54 -74 -46 -10 8 -10
22 2 70 16 64 21 67 91 69 35 1 42 -2 42 -18z m-672 -31 c33 -21 41 -30 27
-30 -24 0 -85 36 -85 50 0 15 5 13 58 -20z m-20 -36 c24 -17 29 -39 10 -50 -8
-5 -9 -1 -5 12 7 18 6 18 -7 1 -11 -14 -22 -16 -60 -11 -25 4 -46 9 -46 13 0
5 67 47 80 50 3 1 16 -6 28 -15z m752 -33 c-9 -33 -15 -41 -33 -40 -15 1 -17
3 -5 6 18 5 31 30 22 44 -6 10 16 43 23 35 2 -2 -1 -22 -7 -45z m-664 2 c19
-26 17 -33 -11 -33 -18 0 -25 5 -25 18 0 34 16 41 36 15z m60 -40 c-4 -4 -14
1 -22 11 -22 31 -17 43 8 19 12 -13 18 -26 14 -30z m-417 4 c-15 -12 -25 -15
-27 -8 -6 18 18 40 35 34 14 -5 12 -9 -8 -26z m79 4 c9 -5 46 -15 80 -22 35
-7 66 -18 69 -25 3 -8 -3 -34 -13 -58 l-18 -43 -109 -12 c-60 -6 -113 -8 -118
-5 -15 9 -10 54 9 69 9 8 37 29 62 46 52 38 38 51 -21 20 -22 -12 -42 -21 -46
-21 -14 0 25 34 52 46 37 16 32 16 53 5z m1368 -12 c17 -28 -25 -37 -236 -53
-118 -9 -237 -19 -264 -23 -33 -4 -47 -3 -43 4 4 6 42 14 84 17 91 8 305 42
348 55 42 13 103 13 111 0z m-754 -39 c-50 -36 -64 -61 -64 -112 1 -46 -15
-41 -24 8 -12 65 41 134 105 134 22 0 20 -3 -17 -30z m-276 -13 c1 -1 5 -16 8
-33 l7 -31 -53 -6 c-29 -4 -67 -7 -85 -7 -32 0 -32 0 -21 33 19 55 27 60 87
53 30 -4 56 -8 57 -9z m110 -7 c19 0 24 -5 24 -25 0 -22 -4 -25 -35 -25 -19 0
-38 0 -42 -1 -11 0 -16 29 -9 48 4 9 13 13 22 9 9 -3 27 -6 40 -6z m180 -24
c-4 -20 -2 -37 4 -41 5 -3 10 0 10 7 0 8 14 22 30 32 26 14 36 16 63 7 69 -24
93 -77 67 -145 -13 -34 -73 -53 -115 -35 -16 7 -34 13 -40 13 -19 2 -35 51
-29 88 4 30 2 38 -14 47 -11 6 -22 7 -26 4 -3 -3 -6 -3 -6 1 0 7 50 56 58 56
2 0 1 -15 -2 -34z m761 17 c6 -18 -15 -21 -291 -43 -230 -19 -261 -19 -274 -6
-13 13 -12 15 9 20 31 7 497 45 528 43 14 -1 26 -7 28 -14z m-13 -65 c8 -13 6
-43 -10 -120 -26 -126 -60 -211 -83 -205 -20 5 -399 235 -405 246 -3 4 3 21
14 38 17 28 24 31 88 38 280 28 379 29 396 3z m-876 -10 c4 -19 -21 -28 -74
-29 -40 0 -372 -24 -476 -34 -53 -6 -58 -4 -58 14 0 22 -6 22 345 47 121 8
225 17 230 19 17 6 30 -1 33 -17z m362 -28 c-6 -11 -15 -20 -20 -20 -6 0 -10
9 -10 20 0 13 7 20 20 20 18 0 19 -3 10 -20z m-366 -32 c8 -14 5 -23 -19 -48
-33 -35 -40 -31 -50 28 l-7 43 32 -3 c18 -2 38 -11 44 -20z m-117 -52 l21 -64
-73 -72 -74 -73 -70 7 c-38 3 -81 10 -95 16 l-26 9 36 83 c20 46 42 97 49 115
14 34 19 35 165 41 l46 2 21 -64z m20 22 c7 -24 15 -51 18 -60 4 -10 3 -18 -2
-18 -5 0 -17 24 -26 53 -19 61 -20 67 -9 67 4 0 13 -19 19 -42z m-317 15 c0
-12 -63 -178 -71 -187 -5 -5 -20 -4 -38 3 -32 14 -69 84 -73 142 -3 34 -3 34
47 40 76 9 135 10 135 2z m-3 -95 c-43 -110 -45 -114 -51 -107 -7 6 74 209 83
209 5 0 -10 -46 -32 -102z m993 -39 c110 -66 202 -125 205 -130 4 -5 -1 -12
-9 -15 -9 -3 -97 43 -218 116 -112 67 -205 124 -207 125 -5 6 10 25 20 25 5 0
99 -54 209 -121z m-571 61 c-13 -22 -26 -40 -30 -40 -4 0 -84 -72 -179 -160
-95 -88 -176 -160 -181 -160 -31 0 6 41 187 209 114 105 211 191 216 191 5 0
-1 -18 -13 -40z m89 11 c10 -6 11 -19 7 -45 -6 -32 -15 -40 -58 -62 -40 -21
-51 -23 -58 -12 -19 29 -8 57 34 92 44 37 54 41 75 27z m461 -116 c110 -66
201 -125 201 -132 0 -7 -19 -36 -43 -65 l-43 -53 -104 4 c-74 2 -101 0 -96 -8
4 -7 39 -11 87 -11 43 0 79 -3 79 -7 -1 -15 -126 -110 -134 -102 -8 9 -196
429 -196 439 0 16 32 61 41 58 4 -2 98 -57 208 -123z m-417 3 c-7 -29 -15 -69
-18 -88 -3 -19 -21 -112 -40 -207 -19 -94 -34 -174 -34 -177 0 -3 -7 -6 -15
-6 -24 0 -19 41 35 307 28 135 50 249 50 252 0 3 8 -2 17 -12 15 -15 16 -23 5
-69z m189 -37 c23 -47 59 -126 81 -176 21 -49 48 -108 60 -131 20 -38 20 -74
1 -74 -10 0 -222 462 -216 472 11 20 37 -13 74 -91z m17 -161 c51 -112 91
-208 89 -215 -10 -24 -149 -58 -259 -62 -100 -5 -108 -4 -108 13 0 11 16 102
36 204 l36 185 46 43 c26 23 51 41 57 39 5 -2 52 -95 103 -207z m-412 161 c-4
-6 -19 -11 -33 -11 l-25 0 23 19 c24 19 48 13 35 -8z m148 6 c-4 -12 -154 -60
-229 -73 -35 -6 -39 -5 -27 8 7 9 36 19 65 22 29 4 81 20 117 35 66 28 83 30
74 8z m-530 -37 c33 -12 81 -24 108 -27 26 -3 48 -10 48 -14 0 -15 -66 -10
-132 11 -34 11 -71 20 -80 20 -10 0 -22 10 -29 21 -13 25 -17 25 85 -11z m512
-47 c-2 -10 -19 -90 -36 -178 -18 -88 -35 -164 -40 -169 -5 -4 -32 0 -62 9
-65 21 -215 98 -201 102 5 2 46 7 89 12 l79 8 -104 2 c-93 1 -107 4 -128 23
-13 12 -23 25 -23 29 0 4 24 30 53 58 35 34 61 51 78 51 52 0 203 31 243 49
52 25 58 25 52 4z m-453 -38 c45 -7 46 -17 8 -44 -39 -28 -46 -27 -76 16 -32
48 -31 54 3 43 15 -5 44 -11 65 -15z"/>
<path d="M7176 1469 c-33 -26 -34 -68 -3 -105 20 -23 28 -26 60 -20 38 7 67
37 67 69 0 24 -53 77 -78 77 -11 0 -31 -9 -46 -21z m73 -33 c9 -11 10 -20 2
-35 -14 -26 -41 -17 -41 13 0 37 19 47 39 22z"/>
<path d="M7560 1019 c63 -11 141 -10 115 1 -11 5 -51 8 -90 8 -67 0 -68 -1
-25 -9z"/>
<path d="M7160 1019 c0 -5 19 -9 42 -9 49 0 47 5 -4 13 -21 3 -38 2 -38 -4z"/>
<path d="M7175 929 c55 -11 167 -10 140 1 -11 5 -56 8 -100 8 -68 0 -74 -1
-40 -9z"/>
<path d="M7120 861 c0 -8 220 -22 229 -15 10 9 -10 12 -116 18 -64 4 -113 3
-113 -3z"/>
<path d="M7150 780 c0 -6 39 -10 98 -9 63 0 90 3 77 9 -28 12 -175 12 -175 0z"/>
<path d="M6760 1000 c20 -13 243 -13 235 0 -4 6 -57 10 -128 10 -82 0 -117 -3
-107 -10z"/>
<path d="M6675 930 c4 -6 69 -9 168 -9 123 2 148 4 102 9 -93 12 -277 12 -270
0z"/>
<path d="M6856 801 c-8 -12 19 -21 65 -21 40 0 52 13 23 24 -24 9 -82 7 -88
-3z"/>
<path d="M5369 1843 c-5 -15 -8 -43 -7 -62 4 -35 4 -36 14 -11 6 14 14 42 18
63 8 44 -9 51 -25 10z"/>
<path d="M5147 899 c-10 -6 -31 -7 -47 -4 -31 7 -43 -10 -16 -21 21 -8 99 10
104 24 5 15 -16 15 -41 1z"/>
<path d="M6180 2130 c0 -5 4 -10 9 -10 6 0 13 5 16 10 3 6 -1 10 -9 10 -9 0
-16 -4 -16 -10z"/>
<path d="M1160 5153 c-14 -20 -47 -77 -75 -126 -48 -86 -52 -91 -97 -104 -41
-12 -48 -18 -57 -48 -5 -19 -19 -47 -30 -61 -23 -30 -21 -44 4 -24 13 10 19
10 33 -4 10 -9 23 -16 28 -16 6 0 54 -23 107 -50 101 -53 135 -56 46 -5 -28
17 -55 37 -60 46 -4 9 -26 19 -47 23 -50 7 -74 33 -50 50 11 8 16 24 15 42 -2
27 1 29 43 36 60 11 59 11 103 -1 50 -12 51 -14 32 -51 -9 -17 -15 -39 -13
-48 3 -12 9 -7 23 18 10 19 39 58 64 87 25 28 54 67 64 85 18 32 18 32 0 13
-10 -12 -32 -38 -50 -59 -20 -25 -37 -37 -47 -33 -23 9 -30 71 -16 135 18 82
23 132 14 132 -5 0 -20 -17 -34 -37z m-27 -140 c-17 -53 -30 -73 -45 -73 -16
0 -1 58 23 91 30 43 40 35 22 -18z"/>
<path d="M1351 5112 c-24 -34 -26 -43 -9 -39 7 1 15 -13 18 -33 6 -32 7 -29
14 28 4 35 6 65 3 68 -3 3 -14 -8 -26 -24z"/>
<path d="M8105 5020 c-22 -18 -50 -30 -66 -30 -36 0 -37 -13 -3 -28 23 -11 30
-8 79 30 30 24 54 46 54 51 2 16 -28 5 -64 -23z"/>
<path d="M1327 4930 c-15 -41 -42 -84 -100 -157 -7 -10 0 -12 35 -7 63 9 97
-12 151 -93 49 -75 83 -110 94 -99 5 4 0 12 -9 17 -10 5 -45 50 -79 100 -48
70 -68 91 -91 96 -36 7 -42 17 -26 42 26 43 47 37 142 -40 32 -26 100 -71 150
-101 71 -41 113 -76 191 -157 55 -58 147 -152 205 -210 58 -59 117 -121 132
-140 14 -18 31 -32 38 -29 19 6 -49 84 -272 309 -176 178 -219 216 -320 282
-64 42 -142 90 -172 108 l-56 31 6 49 c4 27 5 49 3 49 -3 0 -12 -22 -22 -50z"/>
<path d="M7621 4938 c-10 -32 -31 -149 -31 -175 0 -7 9 -13 20 -13 17 0 20 7
20 43 0 37 5 66 25 155 8 36 -22 27 -34 -10z"/>
<path d="M7824 4826 c-89 -44 -169 -87 -178 -95 -36 -31 -2 -20 111 36 65 32
148 71 186 87 37 15 67 34 67 42 0 8 -6 13 -12 13 -7 -1 -86 -38 -174 -83z"/>
<path d="M8038 4893 c-35 -40 -50 -91 -69 -236 -11 -84 -26 -172 -34 -197 -12
-39 -12 -47 1 -61 18 -20 18 -38 -1 -45 -19 -8 -20 -34 -1 -34 7 0 25 9 39 20
27 21 27 40 0 71 -10 12 -11 23 -4 41 10 27 33 153 51 286 6 45 18 98 26 118
18 43 14 62 -8 37z"/>
<path d="M1043 4828 c-26 -13 -31 -31 -7 -21 10 4 22 -1 29 -11 12 -15 14 -15
29 -1 37 37 3 59 -51 33z"/>
<path d="M10142 4699 c-8 -12 -19 -18 -28 -15 -10 4 -28 -6 -46 -25 -29 -28
-30 -33 -24 -85 9 -77 37 -111 134 -159 1 -1 -5 -17 -14 -35 -21 -42 -30 -115
-15 -124 7 -5 9 -22 5 -44 -4 -29 -1 -42 15 -59 25 -26 27 -52 6 -79 -21 -27
-18 -41 10 -60 30 -19 49 -9 21 11 -18 13 -18 16 -2 55 15 37 15 43 0 72 -11
22 -14 43 -10 71 4 25 3 43 -4 47 -18 11 -1 37 33 52 18 7 60 13 95 13 52 0
66 -4 80 -21 9 -12 40 -29 67 -38 28 -9 68 -30 89 -46 22 -17 46 -30 53 -30
10 0 12 -7 8 -19 -4 -14 0 -21 15 -26 24 -8 25 -23 3 -54 -9 -13 -16 -39 -15
-57 1 -24 -5 -38 -23 -52 -28 -22 -31 -32 -11 -32 24 0 67 59 57 78 -6 11 -2
30 12 59 18 36 19 47 9 63 -19 31 -14 72 14 113 28 42 27 69 -7 142 -15 32
-41 55 -130 114 -61 41 -126 79 -145 86 -19 6 -47 23 -62 37 -68 65 -164 88
-190 47z m64 -14 c-4 -12 3 -15 33 -15 73 0 110 -66 97 -173 -18 -145 -15
-137 -51 -137 -18 0 -46 3 -61 6 -28 5 -29 8 -25 46 3 38 2 40 -18 35 -21 -5
-29 7 -12 17 5 3 7 14 4 25 -3 14 -13 18 -41 17 -27 -1 -37 3 -37 14 -1 8 -6
25 -13 37 -16 29 -15 48 5 86 l17 32 6 -25 7 -25 11 28 c15 37 92 68 78 32z
m249 -126 c22 -16 64 -43 94 -60 77 -46 138 -151 117 -205 -5 -14 -13 -11 -44
20 -38 38 -144 95 -219 116 -36 11 -42 16 -45 47 -2 19 0 36 4 39 4 3 8 23 8
45 0 37 2 40 23 34 12 -4 40 -20 62 -36z m40 -194 c100 -48 138 -86 128 -126
-7 -25 -25 -24 -49 2 -10 12 -43 33 -73 46 -30 13 -65 33 -78 43 -13 10 -37
22 -53 25 -34 7 -34 9 -20 36 16 28 40 24 145 -26z"/>
<path d="M10140 4631 c-14 -27 -13 -66 3 -79 6 -6 25 -14 40 -17 15 -4 26 -10
23 -13 -3 -2 6 -18 19 -34 14 -16 25 -40 25 -54 0 -13 5 -24 11 -24 6 0 9 22
7 58 -3 53 -2 57 18 55 14 -2 24 4 27 17 6 23 -8 25 -47 10 -21 -8 -28 -6 -38
9 -9 15 -15 17 -29 8 -28 -17 -52 9 -46 50 6 37 2 42 -13 14z"/>
<path d="M10375 4519 c-4 -6 -2 -14 4 -18 6 -4 9 -14 6 -23 -5 -12 4 -17 37
-21 61 -8 79 25 27 49 -44 21 -67 25 -74 13z"/>
<path d="M7597 4663 c-11 -10 -8 -41 3 -48 6 -4 22 1 36 10 20 13 23 19 13 31
-12 15 -41 19 -52 7z"/>
<path d="M1580 4496 c0 -3 26 -35 58 -69 31 -34 66 -81 76 -104 11 -24 23 -43
28 -43 5 0 -12 42 -39 93 -31 58 -55 92 -65 92 -9 0 -26 9 -37 19 -12 11 -21
16 -21 12z"/>
<path d="M7590 4485 c-17 -20 -5 -45 20 -45 11 0 23 7 26 15 6 15 -11 45 -26
45 -4 0 -13 -7 -20 -15z"/>
<path d="M485 4451 c-77 -21 -125 -41 -125 -52 0 -12 17 -11 43 3 12 6 38 15
57 19 54 12 110 33 110 41 0 11 -15 9 -85 -11z"/>
<path d="M11114 4406 c-27 -32 -86 -63 -70 -37 4 6 2 20 -4 31 -15 28 -64 27
-85 -2 -19 -28 -2 -37 24 -14 30 27 36 18 8 -12 -34 -35 -55 -91 -38 -101 14
-9 69 -2 77 10 2 5 -7 11 -21 15 -35 9 -26 28 13 30 46 2 61 -20 31 -46 -13
-11 -35 -22 -49 -26 -44 -10 -55 -20 -67 -65 -6 -24 -16 -58 -21 -75 -12 -38
-5 -50 32 -60 l29 -7 -23 30 c-21 29 -21 32 -5 62 16 31 73 90 87 91 6 0 37
-25 143 -115 22 -18 53 -43 68 -55 19 -15 26 -28 22 -41 -5 -14 -2 -17 8 -13
29 11 26 -14 -3 -26 -36 -15 -40 -33 -5 -24 18 4 25 2 25 -8 0 -21 -43 -58
-68 -58 -27 0 -29 -16 -2 -25 26 -8 57 10 80 48 35 57 21 115 -40 166 -38 31
-14 25 36 -10 25 -17 48 -29 51 -26 9 9 -79 68 -152 102 -38 18 -86 49 -105
69 l-34 36 21 21 c11 12 26 18 32 15 15 -10 2 -36 -15 -29 -27 10 -14 -18 19
-37 47 -29 68 -25 32 6 -21 18 -24 23 -10 19 11 -4 31 -10 45 -12 22 -4 21 -2
-10 19 l-35 23 30 3 c42 5 57 22 20 22 -41 0 -75 10 -75 22 0 5 11 24 25 42
24 32 34 76 17 76 -5 0 -22 -15 -38 -34z"/>
<path d="M11193 4391 c8 -65 13 -74 36 -60 37 24 172 -76 211 -157 12 -25 20
-47 18 -49 -3 -3 -24 22 -48 54 -42 58 -92 105 -138 130 -34 18 -41 3 -10 -22
14 -12 45 -37 68 -56 23 -18 54 -51 70 -72 23 -33 28 -49 28 -104 0 -57 -2
-67 -21 -77 -29 -15 -38 -29 -31 -50 7 -23 -17 -58 -39 -58 -23 0 -17 -24 6
-28 22 -4 67 45 67 74 0 12 5 26 11 29 9 6 46 81 63 129 4 10 -1 44 -10 75
-21 74 -113 167 -191 194 -44 15 -53 23 -63 52 -19 57 -34 55 -27 -4z"/>
<path d="M492 4380 c-40 -9 -53 -20 -25 -20 36 0 83 12 83 21 0 10 -12 10 -58
-1z"/>
<path d="M7580 4299 c0 -14 5 -19 17 -17 26 5 29 38 4 38 -15 0 -21 -6 -21
-21z"/>
<path d="M7957 4304 c-11 -12 3 -24 28 -24 32 0 56 10 49 21 -6 10 -67 12 -77
3z"/>
<path d="M10289 4281 c-20 -18 -22 -22 -9 -31 28 -19 61 -23 88 -10 15 7 22
15 15 17 -7 2 -9 11 -6 19 3 9 -2 14 -15 14 -11 0 -27 2 -35 5 -7 3 -25 -3
-38 -14z"/>
<path d="M10225 4260 c-7 -12 2 -30 16 -30 5 0 9 9 9 20 0 21 -15 27 -25 10z"/>
<path d="M10417 4253 c-3 -2 -3 -13 0 -24 4 -15 11 -18 27 -13 27 8 29 11 22
22 -7 11 -43 22 -49 15z"/>
<path d="M1866 4201 c47 -79 122 -166 162 -187 23 -12 42 -20 42 -17 0 8 -131
183 -136 183 -3 0 3 -14 11 -31 31 -59 8 -51 -40 14 -52 71 -67 86 -39 38z"/>
<path d="M10460 4205 c-19 -14 -29 -25 -22 -25 20 0 72 29 72 40 0 15 -12 11
-50 -15z"/>
<path d="M10491 4179 c-24 -17 -40 -33 -37 -36 7 -7 86 46 86 58 0 13 -3 12
-49 -22z"/>
<path d="M10270 4185 c-10 -12 -9 -15 8 -15 27 0 52 10 52 21 0 15 -47 10 -60
-6z"/>
<path d="M11315 4111 c44 -44 84 -81 89 -81 13 0 -123 138 -149 152 -11 6 16
-26 60 -71z"/>
<path d="M10256 4141 c-3 -5 1 -11 9 -15 8 -3 15 -12 15 -21 0 -18 23 -20 51
-4 20 10 20 11 3 30 -18 19 -68 26 -78 10z"/>
<path d="M10500 4131 c0 -5 7 -14 15 -21 21 -17 19 -53 -5 -83 -24 -30 -25
-37 -6 -37 37 0 64 101 37 134 -14 17 -41 22 -41 7z"/>
<path d="M2100 4069 c0 -9 9 -28 21 -43 l21 -27 -26 -60 c-29 -68 -30 -69 -16
-69 14 0 70 91 69 115 0 24 -69 108 -69 84z"/>
<path d="M11040 4060 c0 -5 13 -10 29 -10 17 0 33 5 36 10 4 6 -8 10 -29 10
-20 0 -36 -4 -36 -10z"/>
<path d="M10672 4029 c15 -8 16 -13 5 -30 -11 -18 -8 -24 26 -53 20 -18 37
-38 37 -45 0 -16 -60 -14 -94 4 -39 20 -63 19 -78 -5 -8 -12 -24 -20 -40 -20
-32 0 -37 -15 -9 -30 30 -16 39 -12 56 20 16 31 30 36 54 21 13 -8 13 -12 0
-27 -13 -16 -12 -17 11 -10 14 5 43 11 65 13 75 10 85 41 29 89 -32 26 -35 33
-26 51 14 25 7 33 -27 33 -22 -1 -24 -2 -9 -11z"/>
<path d="M10924 4018 c-4 -6 1 -17 10 -24 14 -10 15 -17 7 -33 -14 -25 -14
-41 -1 -41 7 0 60 89 60 102 0 9 -71 5 -76 -4z"/>
<path d="M11073 4005 c-8 -22 0 -27 31 -19 21 5 24 9 15 20 -15 19 -38 18 -46
-1z"/>
<path d="M1274 3995 c-6 -15 4 -34 74 -135 34 -50 42 -58 42 -38 0 13 -16 48
-35 78 -19 30 -35 61 -35 70 0 17 -19 40 -32 40 -5 0 -11 -7 -14 -15z"/>
<path d="M10089 3946 c-16 -19 -28 -24 -49 -20 -21 5 -30 0 -43 -20 -10 -14
-24 -26 -32 -26 -8 0 -15 -9 -15 -20 0 -11 3 -20 8 -20 4 0 31 -21 61 -47 l53
-46 25 31 c20 27 28 30 44 22 22 -12 24 -7 9 21 -14 26 -34 24 -54 -6 -21 -32
-36 -32 -69 3 -25 26 -26 31 -15 60 11 28 17 32 50 32 25 0 40 6 47 18 9 16
11 16 24 -2 19 -26 30 -5 11 22 -19 28 -29 28 -55 -2z"/>
<path d="M10231 3957 c9 -7 14 -18 12 -24 -6 -16 12 -17 38 -2 28 15 7 39 -35
39 -26 -1 -29 -2 -15 -13z"/>
<path d="M10967 3923 c-14 -13 -6 -23 18 -23 28 0 34 15 9 24 -19 7 -19 7 -27
-1z"/>
<path d="M10933 3840 c9 -81 20 -98 72 -112 27 -7 45 -19 48 -30 7 -25 48 -23
127 7 76 29 142 79 134 100 -4 8 -10 12 -16 9 -5 -3 -7 -12 -4 -19 6 -16 -120
-75 -177 -82 l-42 -6 28 23 c36 29 30 34 -23 20 -37 -10 -48 -9 -77 7 -20 11
-36 28 -39 43 -26 116 -40 134 -31 40z"/>
<path d="M10315 3875 c-27 -8 -61 -12 -75 -9 -24 5 -24 5 -6 -10 11 -9 30 -16
43 -16 31 0 93 26 93 39 0 6 -1 11 -2 10 -2 0 -25 -7 -53 -14z"/>
<path d="M10474 3831 c6 -49 5 -53 -11 -46 -10 3 -33 9 -50 12 -29 5 -33 3
-33 -16 0 -28 -56 -111 -75 -111 -8 0 -30 14 -49 31 -37 32 -44 31 -83 -4 -20
-17 -26 -18 -53 -7 -16 7 -30 16 -30 20 0 4 18 15 40 25 34 16 53 35 34 35
-20 0 -143 -55 -137 -61 5 -4 36 -18 70 -32 l62 -24 22 23 c22 24 49 32 49 15
0 -11 66 -51 85 -51 8 0 22 12 31 28 72 116 93 127 145 71 34 -36 35 -31 13
59 -21 86 -39 106 -30 33z"/>
<path d="M10980 3835 c13 -16 70 -21 70 -6 0 5 -14 11 -31 15 -47 9 -53 8 -39
-9z"/>
<path d="M500 3810 c-21 -30 -21 -60 0 -60 5 0 10 -10 10 -21 0 -33 27 -5 41
42 9 30 9 42 -1 54 -18 21 -26 19 -50 -15z m30 -20 c0 -11 -4 -20 -10 -20 -5
0 -10 9 -10 20 0 11 5 20 10 20 6 0 10 -9 10 -20z"/>
<path d="M10673 3833 c-69 -5 -69 -23 0 -23 51 0 56 -2 86 -40 17 -22 39 -40
47 -40 19 0 18 4 -26 62 -19 26 -39 47 -45 46 -5 -1 -34 -3 -62 -5z"/>
<path d="M9950 3769 c0 -39 -5 -46 -82 -118 -46 -44 -88 -75 -97 -73 -33 8
-74 2 -96 -12 -12 -8 -43 -17 -69 -21 -48 -8 -76 -26 -76 -50 0 -22 -29 -45
-58 -45 -37 0 -131 -56 -142 -84 -8 -21 -13 -23 -58 -18 -78 7 -69 -13 13 -31
102 -22 312 -111 352 -150 43 -40 53 -29 14 16 l-31 35 26 6 c30 8 44 -5 44
-41 0 -13 5 -23 10 -23 13 0 13 11 -1 66 -10 40 -13 43 -28 31 -9 -8 -28 -16
-42 -19 -26 -5 -27 -4 -32 65 -3 43 -10 73 -18 78 -11 7 -10 9 4 9 9 0 17 5
17 10 0 14 -33 13 -47 -1 -6 -6 -9 -18 -6 -26 7 -18 -22 -50 -63 -69 -26 -12
-37 -13 -54 -4 l-22 12 27 14 c15 8 33 14 40 14 19 0 45 34 45 61 0 43 44 96
87 104 21 4 55 16 75 27 38 22 82 18 60 -4 -7 -7 -12 -25 -12 -40 0 -32 -2
-33 -31 -15 -18 11 -23 8 -44 -18 -27 -33 -25 -47 3 -22 25 23 29 22 36 -15 3
-18 17 -55 31 -82 14 -27 25 -65 25 -85 0 -33 -1 -34 -15 -15 -14 18 -15 17
-9 -11 10 -47 22 -52 50 -22 19 21 34 27 68 27 23 0 46 -3 49 -7 4 -3 -17 -32
-46 -63 -28 -31 -90 -105 -137 -164 -73 -92 -113 -130 -280 -264 -233 -187
-400 -345 -430 -409 -25 -54 -22 -69 19 -78 41 -9 49 -24 21 -45 -16 -12 -19
-19 -11 -25 18 -10 51 24 51 52 0 18 -9 28 -35 39 -41 17 -38 38 8 53 110 34
243 39 273 9 13 -13 9 -20 -31 -56 -26 -23 -43 -46 -40 -52 9 -15 61 -12 75 5
10 12 10 15 -4 15 -22 0 -20 17 3 30 25 13 44 13 36 0 -3 -5 -2 -10 4 -10 5 0
33 42 62 93 57 101 168 274 260 407 32 47 84 126 115 175 32 50 64 100 72 113
8 12 10 22 5 22 -13 0 -379 -549 -467 -702 -16 -27 -29 -48 -31 -48 -2 0 -20
10 -40 21 -33 20 -47 21 -161 17 -94 -4 -124 -2 -124 7 0 26 350 340 470 422
77 53 137 111 201 196 85 114 137 166 158 160 10 -2 31 6 47 20 43 36 69 47
108 47 37 0 48 13 20 24 -39 15 -77 5 -115 -29 -22 -19 -45 -35 -52 -35 -6 1
12 23 41 50 30 28 47 50 38 50 -8 0 -18 -4 -21 -10 -3 -5 -15 -10 -26 -10 -14
0 -19 7 -19 29 0 23 8 34 35 50 41 24 42 35 14 96 -11 24 -18 49 -14 55 3 5 2
10 -3 10 -5 0 -15 -13 -22 -30 -11 -27 -10 -32 15 -62 l27 -32 -30 -14 c-29
-14 -30 -14 -81 39 -59 61 -80 60 -27 -2 43 -51 45 -63 9 -44 -34 18 -49 5
-31 -25 10 -18 10 -24 1 -27 -7 -3 -13 -11 -13 -19 0 -9 -4 -12 -10 -9 -5 3
-10 14 -10 23 0 10 -9 34 -20 55 -24 44 -26 71 -6 64 21 -8 24 0 16 44 l-7 39
105 108 c102 104 105 108 110 160 3 35 1 52 -7 52 -6 0 -11 -17 -11 -41z"/>
<path d="M10561 3766 c-19 -20 -22 -31 -16 -68 6 -38 3 -50 -27 -95 -105 -163
-122 -197 -93 -191 10 2 35 36 57 78 21 41 50 92 63 112 19 28 25 51 25 90 0
58 5 69 35 86 20 11 20 11 -1 12 -11 0 -31 -11 -43 -24z"/>
<path d="M11327 3779 c-15 -9 -16 -13 -5 -26 11 -13 7 -21 -25 -48 -21 -18
-71 -45 -112 -60 -41 -15 -78 -31 -81 -37 -12 -19 5 -19 48 2 l43 21 -27 -23
c-29 -25 -35 -38 -18 -38 25 0 210 145 210 165 0 7 5 15 11 17 13 4 1 38 -15
38 -6 0 -19 -5 -29 -11z"/>
<path d="M1989 3658 c-118 -157 -201 -249 -290 -323 -94 -77 -128 -92 -173
-75 -37 14 -46 13 -46 -5 0 -20 40 -35 92 -35 36 0 49 8 131 83 51 45 113 105
138 132 56 61 185 229 206 268 29 57 4 37 -58 -45z"/>
<path d="M10812 3698 c-15 -23 -57 -71 -93 -107 -36 -36 -79 -85 -94 -108 -15
-24 -34 -43 -42 -43 -25 0 -8 -25 20 -28 22 -3 28 3 47 45 25 56 43 78 91 108
24 16 45 44 68 89 30 62 51 80 66 56 3 -5 13 -10 22 -10 14 0 14 3 -2 20 -28
31 -52 24 -83 -22z"/>
<path d="M11376 3728 c4 -7 16 -23 26 -35 20 -21 20 -21 -4 -53 -26 -36 -72
-62 -168 -96 -45 -15 -57 -23 -39 -23 15 -1 45 6 68 14 23 8 47 12 55 9 16 -6
116 71 116 90 0 16 32 46 50 46 7 0 22 -7 32 -17 26 -24 33 -9 14 31 -16 33
-17 34 -50 24 -28 -9 -40 -8 -60 5 -30 20 -50 22 -40 5z"/>
<path d="M2084 3643 c-69 -108 -198 -279 -252 -335 -25 -26 -43 -51 -39 -54 4
-4 44 32 88 79 85 91 126 118 67 45 -18 -24 -46 -61 -62 -83 -25 -36 -23 -35
22 12 27 29 52 50 55 47 10 -11 -6 -79 -22 -91 -15 -11 -14 -14 1 -40 19 -32
81 -68 103 -59 22 8 39 51 31 79 -3 14 -21 34 -40 45 l-34 20 2 89 3 88 71
109 c40 61 72 114 72 118 0 23 -21 0 -66 -69z m-50 -389 c9 -24 7 -64 -4 -64
-18 0 -60 23 -60 33 0 15 31 47 45 47 7 0 16 -7 19 -16z"/>
<path d="M10920 3628 c-38 -82 -48 -122 -29 -116 8 2 24 33 37 68 29 81 35 88
72 82 31 -4 42 11 14 22 -47 18 -64 8 -94 -56z"/>
<path d="M10060 3650 c-8 -6 -39 -17 -67 -26 -29 -8 -55 -20 -59 -26 -3 -5 10
-23 29 -39 24 -20 38 -42 43 -65 4 -22 18 -44 41 -63 34 -28 35 -29 14 -40
-11 -7 -21 -18 -21 -26 0 -20 14 -19 31 1 7 8 34 26 59 39 42 21 82 55 66 55
-4 0 -29 -11 -56 -25 l-50 -25 -25 22 c-14 12 -31 41 -36 64 -6 23 -22 53 -35
65 -32 30 -31 36 15 49 22 6 50 19 63 30 24 20 15 28 -12 10z"/>
<path d="M1476 3575 c14 -38 32 -90 40 -115 16 -56 37 -85 52 -76 9 5 7 18 -7
44 -11 20 -34 71 -52 112 -42 99 -68 126 -33 35z"/>
<path d="M10759 3549 c-47 -46 -79 -84 -72 -86 16 -6 34 7 128 95 69 63 76 72
53 72 -18 0 -49 -23 -109 -81z"/>
<path d="M10967 3614 c-4 -4 -4 -32 -1 -63 l6 -56 -51 -25 c-52 -24 -84 -50
-62 -50 6 0 57 19 114 43 56 24 117 49 135 56 33 14 43 31 18 31 -7 0 -31 -7
-52 -16 -26 -11 -39 -13 -42 -5 -2 6 -10 11 -17 11 -15 0 -25 22 -25 56 0 23
-10 31 -23 18z"/>
<path d="M11365 3543 c-27 -9 -43 -18 -35 -20 25 -6 93 12 98 25 5 15 -1 15
-63 -5z"/>
<path d="M608 3464 c-5 -4 -8 -23 -8 -43 0 -25 3 -32 11 -24 6 6 9 25 7 43 -2
17 -6 28 -10 24z"/>
<path d="M1484 3409 c-41 -51 -94 -197 -94 -259 0 -29 -5 -39 -27 -51 -14 -8
-32 -28 -39 -45 -10 -25 -36 -44 -116 -89 -57 -32 -125 -71 -152 -87 -59 -35
-99 -31 -121 12 -32 61 -70 40 -80 -45 -8 -57 -1 -105 14 -105 5 0 8 15 7 32
-1 25 4 35 22 43 12 5 22 13 22 18 0 4 5 5 10 2 6 -3 10 -15 10 -25 0 -31 39
-47 148 -61 56 -7 108 -17 116 -23 7 -6 23 -48 35 -92 l23 -82 -24 -38 c-13
-22 -38 -74 -55 -116 -29 -72 -52 -111 -138 -232 -31 -43 -35 -55 -35 -113 0
-113 35 -237 92 -323 70 -107 151 -271 187 -375 29 -86 33 -93 108 -163 73
-67 108 -91 119 -79 3 3 -16 24 -43 48 -155 143 -149 135 -166 203 -19 76 -93
243 -152 341 -24 39 -57 104 -76 145 -29 66 -33 86 -33 165 l-1 90 66 115 c36
63 79 144 95 180 36 84 53 110 71 110 8 0 36 -22 62 -48 63 -63 148 -231 162
-322 6 -36 19 -85 30 -110 16 -35 19 -58 15 -100 -4 -36 0 -86 13 -145 81
-379 91 -448 71 -460 -7 -4 -24 2 -40 13 -24 18 -30 19 -40 7 -16 -20 -35 -19
-55 2 -13 13 -15 27 -10 74 7 58 7 58 -34 98 -22 22 -56 63 -74 93 -41 64
-119 235 -120 263 -1 11 8 55 18 99 18 73 24 84 87 153 37 41 68 79 68 85 0 5
-28 -15 -62 -46 -34 -31 -67 -56 -73 -56 -30 0 -70 -144 -61 -219 13 -105 100
-286 186 -384 42 -47 43 -49 30 -86 -18 -56 -10 -79 42 -118 l48 -35 10 26
c12 32 21 32 56 2 l28 -23 -23 -74 c-32 -101 -56 -147 -124 -237 -57 -75 -76
-116 -62 -130 13 -13 228 -8 263 7 46 19 53 39 51 134 -2 94 8 120 51 142 35
18 40 55 15 126 -31 86 -45 214 -49 429 -2 118 -9 242 -16 275 -7 36 -10 106
-8 172 2 61 1 110 -4 107 -4 -3 -8 -30 -8 -59 0 -30 -9 -83 -21 -119 l-21 -64
22 -59 c18 -47 24 -91 30 -238 13 -258 19 -318 46 -428 24 -98 24 -117 0 -117
-20 0 -53 -41 -75 -92 -19 -45 -22 -48 -59 -48 -21 0 -47 -7 -58 -15 -18 -15
-18 -15 7 -9 19 4 28 1 32 -10 8 -20 31 -21 47 -1 24 29 40 18 40 -27 0 -48
-6 -60 -35 -75 -32 -17 -170 -26 -194 -13 -25 13 -20 27 41 103 21 27 38 54
38 59 0 6 11 26 25 44 45 59 69 172 66 309 -2 147 -16 246 -47 347 -34 112
-46 193 -32 224 9 20 8 35 -4 72 -9 26 -26 91 -38 145 -29 130 -92 257 -160
323 -68 65 -149 231 -122 248 5 3 74 -6 153 -19 79 -14 166 -28 192 -32 46 -6
48 -8 69 -57 12 -28 43 -91 69 -141 44 -84 47 -96 53 -190 3 -55 17 -147 31
-205 17 -72 25 -135 25 -200 0 -62 9 -138 26 -220 34 -162 43 -240 43 -380 0
-140 -10 -221 -39 -320 -21 -71 -28 -80 -116 -171 -52 -52 -94 -100 -94 -107
0 -6 14 -19 32 -28 40 -21 193 -15 250 9 49 20 81 84 108 213 18 89 27 107 54
117 12 4 -23 278 -37 292 -6 7 -8 -7 -4 -40 3 -27 9 -86 13 -131 6 -79 6 -81
-26 -125 -38 -55 -50 -104 -43 -173 5 -50 4 -55 -30 -88 -29 -29 -47 -38 -99
-47 -72 -12 -141 -14 -151 -4 -14 14 62 109 99 123 14 6 28 30 44 77 12 37 29
75 37 84 26 31 35 137 29 350 -4 150 -10 219 -21 253 -29 84 -45 196 -45 306
0 84 -7 140 -29 242 -31 140 -50 308 -35 308 12 0 55 -72 77 -129 10 -23 26
-80 37 -125 10 -44 35 -132 54 -194 32 -100 35 -121 30 -185 -6 -72 12 -154
90 -426 28 -96 49 -279 42 -371 -14 -212 -28 -251 -148 -413 -63 -85 -70 -110
-36 -128 26 -14 175 -6 232 13 93 30 138 121 118 233 -18 96 -15 144 13 190
35 57 33 79 -28 289 -9 32 -8 40 5 50 15 11 15 13 -1 23 -25 15 -44 151 -42
295 1 71 -4 155 -14 214 -14 80 -15 122 -8 248 5 83 10 178 10 211 1 43 9 76
27 115 14 30 26 63 26 73 0 10 10 21 21 25 39 15 79 161 78 282 -1 86 -9 63
-27 -77 -16 -120 -54 -195 -66 -130 -12 64 -26 189 -26 237 0 38 -3 51 -10 40
-5 -9 -7 -92 -3 -205 l5 -190 -31 -65 c-31 -65 -31 -65 -25 -182 5 -77 3 -148
-6 -206 -11 -80 -11 -96 6 -158 13 -52 18 -113 20 -254 3 -201 16 -307 60
-473 l29 -107 -29 -51 c-28 -50 -28 -51 -16 -130 6 -44 8 -88 5 -98 -3 -11 -1
-22 4 -25 26 -16 -43 -106 -102 -135 -26 -12 -75 -24 -120 -27 -65 -6 -77 -4
-83 9 -7 19 22 69 83 144 96 118 123 258 98 507 -16 165 -49 325 -76 377 -27
53 -40 128 -44 254 -2 94 -8 127 -40 230 -21 66 -50 168 -65 226 -33 124 -35
129 -108 232 -45 63 -58 75 -63 60 -6 -16 -8 -15 -17 7 -30 75 -88 200 -108
236 l-24 41 -112 16 c-62 9 -174 21 -248 27 -95 7 -139 15 -149 25 -14 13 -13
15 4 15 10 0 27 8 37 17 16 14 23 15 38 5 27 -16 30 -15 30 9 0 11 14 34 30
51 25 24 36 29 58 23 68 -17 100 -17 138 3 l38 19 50 -25 c28 -14 54 -29 57
-35 4 -5 10 -36 13 -68 8 -68 26 -79 27 -16 2 70 11 88 52 102 53 18 107 57
173 126 68 72 64 91 -5 26 -27 -26 -78 -65 -112 -87 -50 -32 -71 -40 -109 -40
-78 0 -107 40 -39 54 18 3 55 29 92 65 34 32 73 61 86 63 30 4 36 18 17 43
-13 18 -19 15 -107 -62 -96 -84 -153 -112 -201 -99 -29 7 -61 59 -46 74 6 6
12 35 13 64 2 67 20 129 45 160 l19 23 1 -27 c0 -31 28 -52 50 -38 12 7 12 10
-3 16 -9 3 -17 14 -17 25 0 10 -6 22 -14 26 -8 4 -15 17 -17 27 -3 16 -6 17
-15 5z m-110 -395 c26 -10 18 -24 -14 -24 -20 0 -30 5 -30 15 0 16 17 19 44 9z
m-88 -205 c109 -17 222 -33 249 -36 57 -6 75 -17 75 -44 0 -16 -6 -18 -37 -14
-21 3 -123 16 -228 30 -331 43 -404 61 -365 85 25 16 98 11 306 -21z"/>
<path d="M10485 3391 c-7 -12 31 -25 45 -16 6 4 8 11 5 16 -8 12 -42 12 -50 0z"/>
<path d="M10360 3357 c-76 -21 -103 -23 -176 -12 -48 8 -71 -10 -28 -21 16 -4
54 -23 86 -42 61 -36 85 -37 53 -1 -17 17 -17 22 -5 29 8 6 25 10 38 10 12 0
30 4 40 9 9 5 30 13 46 17 16 5 31 15 34 22 5 15 2 15 -88 -11z"/>
<path d="M1295 3318 c-27 -22 -62 -46 -77 -54 -27 -14 -29 -14 -60 31 -46 65
-67 61 -26 -5 47 -77 59 -103 54 -116 -10 -25 12 -15 71 35 103 86 128 129 30
51 -73 -59 -71 -39 4 29 74 68 77 88 4 29z"/>
<path d="M9150 3313 c-50 -24 -234 -213 -305 -312 -126 -177 -125 -175 -295
-259 -85 -43 -153 -82 -150 -87 6 -13 40 -8 59 9 9 7 41 23 71 36 30 12 70 29
88 37 64 27 30 2 -58 -42 -49 -25 -90 -50 -90 -55 0 -16 17 -12 90 25 91 46
91 31 0 -18 -39 -20 -70 -42 -70 -47 0 -15 17 -12 61 11 23 11 43 18 46 15 3
-3 -15 -15 -41 -28 -25 -12 -46 -27 -46 -33 0 -13 32 -45 45 -45 16 0 65 64
116 150 28 48 78 123 110 166 33 43 69 97 81 119 11 22 32 54 47 71 14 17 51
63 81 103 30 40 88 98 128 129 39 31 72 60 72 64 0 10 1 10 -40 -9z"/>
<path d="M10016 3272 c-4 -7 8 -13 31 -17 21 -3 58 -12 82 -19 34 -11 48 -12
62 -3 30 19 23 24 -38 31 -32 4 -74 9 -94 12 -21 4 -39 2 -43 -4z"/>
<path d="M1838 3223 c-35 -5 -36 -31 -2 -39 17 -4 31 -1 41 9 14 14 11 39 -5
36 -4 -1 -19 -4 -34 -6z"/>
<path d="M9229 3189 c-100 -64 -339 -312 -459 -474 -56 -77 -107 -146 -113
-152 -6 -9 -6 -13 1 -13 6 0 63 69 127 154 140 186 207 260 345 383 69 61 118
97 143 104 36 9 46 22 28 33 -5 3 -37 -13 -72 -35z"/>
<path d="M2100 3211 c0 -6 6 -13 13 -18 24 -15 464 -194 612 -248 105 -39 132
-56 121 -74 -14 -21 -59 -10 -222 54 -91 36 -167 65 -169 65 -3 0 -81 34 -175
76 -94 41 -176 74 -182 72 -16 -6 76 -57 192 -108 110 -49 546 -220 559 -220
4 0 13 23 18 51 12 56 18 50 -77 82 -71 24 -285 111 -400 162 -129 58 -268
115 -281 115 -5 0 -9 -4 -9 -9z"/>
<path d="M286 3195 c-6 -17 57 -89 68 -78 13 14 5 45 -19 68 -28 29 -40 31
-49 10z"/>
<path d="M10080 3203 c-14 -3 -29 -9 -35 -15 -13 -14 95 -2 109 12 10 10 -24
12 -74 3z"/>
<path d="M10185 3200 c3 -5 13 -10 21 -10 8 0 12 5 9 10 -3 6 -13 10 -21 10
-8 0 -12 -4 -9 -10z"/>
<path d="M440 3180 c0 -3 4 -19 9 -35 4 -17 4 -41 -1 -54 -8 -22 -12 -23 -58
-18 -54 7 -65 -3 -25 -21 37 -17 62 -15 85 8 24 24 26 78 5 106 -8 10 -15 17
-15 14z"/>
<path d="M1136 3173 c-3 -3 -6 -14 -6 -24 0 -30 -39 -85 -87 -125 -43 -35 -44
-38 -27 -51 16 -12 21 -11 34 7 19 26 63 52 109 66 11 4 12 7 3 16 -20 20 -14
31 13 24 19 -5 45 4 100 35 120 65 111 79 -18 29 -81 -32 -97 -32 -97 0 0 20
-13 33 -24 23z"/>
<path d="M9390 3166 c24 -22 223 -136 238 -136 9 0 12 6 8 16 -3 9 -6 18 -6
20 0 3 -4 2 -10 -1 -5 -3 -56 21 -112 54 -98 58 -152 80 -118 47z"/>
<path d="M9423 3058 c85 -104 117 -128 117 -88 0 12 -9 24 -24 29 -12 5 -38
29 -56 53 -51 66 -93 108 -107 108 -8 0 24 -46 70 -102z"/>
<path d="M9700 3131 c0 -6 5 -13 10 -16 6 -3 10 1 10 9 0 9 -4 16 -10 16 -5 0
-10 -4 -10 -9z"/>
<path d="M9202 2943 c-27 -54 -85 -177 -127 -273 -43 -96 -95 -210 -116 -252
-42 -83 -43 -88 -31 -88 12 0 100 171 157 305 26 61 61 139 78 175 16 36 43
94 59 130 16 36 37 73 45 82 15 16 15 18 0 18 -9 0 -34 -37 -65 -97z"/>
<path d="M9089 2963 c-76 -112 -317 -369 -374 -401 -11 -6 -17 -14 -13 -18 4
-4 25 5 45 19 110 77 424 447 378 447 -2 0 -19 -21 -36 -47z"/>
<path d="M9989 2984 c-18 -22 -199 -377 -195 -382 2 -2 19 23 39 55 39 67 180
343 173 343 -2 0 -9 -7 -17 -16z"/>
<path d="M976 2952 c-3 -6 -1 -14 5 -17 15 -10 25 3 12 16 -7 7 -13 7 -17 1z"/>
<path d="M9960 2813 c-61 -96 -159 -223 -170 -220 -12 2 -72 -98 -63 -106 12
-12 44 15 83 71 22 31 60 85 86 120 52 74 119 191 111 198 -2 3 -24 -26 -47
-63z"/>
<path d="M9722 2593 c-28 -43 -92 -130 -143 -193 -50 -63 -110 -141 -132 -172
-23 -32 -50 -59 -63 -62 -13 -4 -24 -11 -24 -16 0 -6 16 -4 36 5 20 8 38 15
39 15 2 0 16 24 33 53 16 28 57 85 90 125 91 109 236 322 219 322 -2 0 -27
-35 -55 -77z"/>
<path d="M8530 2488 c-23 -10 -18 -12 44 -20 93 -11 121 -26 226 -124 51 -46
95 -84 100 -84 11 0 21 30 14 41 -3 5 -14 9 -24 9 -11 0 -51 32 -90 71 -39 39
-90 79 -113 89 -55 24 -126 32 -157 18z"/>
<path d="M3684 2444 c-18 -14 -18 -14 6 -3 31 14 36 19 24 19 -6 0 -19 -7 -30
-16z"/>
<path d="M2791 2386 c-16 -30 -40 -61 -53 -70 l-22 -16 21 0 c22 0 59 50 82
113 16 42 6 32 -28 -27z"/>
<path d="M9645 2279 c-49 -39 -105 -78 -124 -87 -39 -19 -52 -42 -24 -42 10 0
45 23 78 52 33 28 86 73 118 100 87 72 55 57 -48 -23z"/>
<path d="M9824 2293 c-16 -13 -89 -53 -162 -89 -79 -39 -132 -70 -129 -77 7
-20 44 -9 151 43 86 42 203 122 205 140 2 15 -40 3 -65 -17z"/>
<path d="M4235 2241 c8 -17 40 -68 69 -114 136 -210 150 -254 135 -417 -19
-210 -36 -288 -84 -382 -25 -48 -45 -95 -45 -105 -2 -44 -33 -99 -101 -177
l-74 -85 -150 -2 -150 -2 132 -6 c72 -3 135 -10 139 -14 4 -4 2 -13 -5 -20 -8
-8 -77 -13 -234 -17 l-222 -5 215 -6 c175 -5 222 -9 255 -24 32 -14 58 -16
135 -13 127 7 165 23 192 84 16 37 19 60 15 100 -9 86 6 120 68 159 l53 35 6
62 c3 35 8 107 11 162 6 88 33 243 51 291 5 12 4 16 -4 12 -6 -4 -20 -35 -31
-70 -35 -107 -52 -216 -50 -318 1 -53 -1 -101 -5 -107 -3 -5 -19 -12 -35 -15
-18 -4 -40 -21 -58 -44 -15 -21 -34 -44 -40 -51 -17 -18 -16 -72 2 -96 30 -40
6 -116 -47 -150 -41 -26 -191 -46 -232 -30 -26 10 -19 30 34 87 28 30 50 60
50 66 0 5 8 15 18 20 32 17 71 84 85 148 8 34 33 99 55 145 41 84 50 121 72
314 16 146 13 221 -12 273 -24 52 -122 212 -174 286 -41 57 -63 72 -39 26z"/>
<path d="M8950 2170 c0 -5 9 -10 19 -10 11 0 23 5 26 10 4 6 -5 10 -19 10 -14
0 -26 -4 -26 -10z"/>
<path d="M9300 2137 c0 -18 61 -50 85 -45 17 3 12 9 -22 31 -47 30 -63 33 -63
14z"/>
<path d="M1167 2083 c-4 -7 -10 -36 -13 -65 l-4 -53 15 34 c16 34 18 108 2 84z"/>
<path d="M1540 1210 c0 -22 5 -40 10 -40 6 0 10 18 10 40 0 22 -4 40 -10 40
-5 0 -10 -18 -10 -40z"/>
<path d="M1035 1230 c-3 -5 3 -10 14 -10 12 0 21 5 21 10 0 6 -6 10 -14 10 -8
0 -18 -4 -21 -10z"/>
<path d="M3948 1153 c-10 -3 -18 -9 -18 -14 0 -12 37 -12 45 0 7 12 -5 19 -27
14z"/>
<path d="M3353 1093 c48 -2 125 -2 170 0 45 1 6 3 -88 3 -93 0 -130 -2 -82 -3z"/>
<path d="M9123 1092 c-6 -4 185 -6 424 -5 239 1 437 4 440 7 9 9 -850 7 -864
-2z"/>
<path d="M8090 1070 c61 -10 746 -20 695 -10 -22 4 -197 10 -390 13 -192 2
-330 1 -305 -3z"/>
<path d="M9143 1053 c9 -2 23 -2 30 0 6 3 -1 5 -18 5 -16 0 -22 -2 -12 -5z"/>
<path d="M9627 1053 c18 -2 50 -2 70 0 21 2 7 4 -32 4 -38 0 -55 -2 -38 -4z"/>
<path d="M4386 1032 c-3 -6 -1 -14 5 -17 15 -10 25 3 12 16 -7 7 -13 7 -17 1z"/>
<path d="M5512 1035 c11 -12 821 -26 833 -14 5 5 -82 9 -231 9 -133 0 -324 3
-425 6 -101 4 -181 3 -177 -1z"/>
<path d="M4262 1011 c-11 -7 -10 -10 3 -15 25 -9 39 -7 61 9 18 13 17 14 -16
15 -19 0 -41 -4 -48 -9z"/>
<path d="M8000 999 c54 -7 2120 -10 2090 -3 -8 1 -494 4 -1080 6 -586 2 -1040
0 -1010 -3z"/>
<path d="M2623 993 c20 -2 54 -2 75 0 20 2 3 4 -38 4 -41 0 -58 -2 -37 -4z"/>
<path d="M2863 993 c9 -2 23 -2 30 0 6 3 -1 5 -18 5 -16 0 -22 -2 -12 -5z"/>
<path d="M5970 939 c67 -12 480 -11 480 1 0 6 -93 10 -262 9 -167 -1 -246 -4
-218 -10z"/>
<path d="M2568 933 c6 -2 18 -2 25 0 6 3 1 5 -13 5 -14 0 -19 -2 -12 -5z"/>
<path d="M2948 923 c12 -2 32 -2 45 0 12 2 2 4 -23 4 -25 0 -35 -2 -22 -4z"/>
<path d="M5495 884 c43 -8 881 -21 899 -14 11 3 -86 10 -215 13 -237 7 -721 7
-684 1z"/>
<path d="M2360 863 c0 -5 127 -8 283 -9 155 0 257 3 227 7 -74 10 -510 11
-510 2z"/>
<path d="M7955 849 c140 -7 1819 -10 1800 -4 -5 2 -444 5 -975 7 -531 2 -902
1 -825 -3z"/>
<path d="M1879 818 c-11 -20 -10 -21 31 -15 64 8 69 20 13 30 -27 5 -35 2 -44
-15z"/>
<path d="M6200 790 c41 -4 118 -7 170 -7 89 0 91 0 35 7 -33 4 -109 8 -170 7
-108 0 -109 0 -35 -7z"/>
<path d="M7935 789 c267 -12 1376 -25 1700 -19 204 4 83 7 -495 13 -421 4
-907 9 -1080 11 -287 4 -298 4 -125 -5z"/>
<path d="M10288 763 c39 -2 105 -2 145 0 39 1 7 3 -73 3 -80 0 -112 -2 -72 -3z"/>
<path d="M4735 750 c-13 -6 5 -8 55 -8 55 0 67 2 45 8 -41 10 -76 10 -100 0z"/>
<path d="M10453 733 c71 -2 183 -2 250 0 67 1 10 3 -128 3 -137 0 -192 -2
-122 -3z"/>
<path d="M3870 720 l-185 -6 210 -1 c116 -1 230 2 255 6 41 8 40 8 -25 8 -38
-1 -153 -4 -255 -7z"/>
<path d="M6405 719 c95 -4 164 -4 170 2 5 5 -57 8 -160 7 l-170 -1 160 -8z"/>
<path d="M2110 646 c0 -18 4 -24 15 -20 8 4 21 1 28 -5 10 -7 24 -7 50 1 47
14 47 24 0 31 -21 4 -50 9 -65 13 -25 6 -28 4 -28 -20z"/>
<path d="M11278 653 c18 -2 45 -2 60 0 15 2 0 4 -33 4 -33 0 -45 -2 -27 -4z"/>
<path d="M4058 563 c23 -2 59 -2 80 0 20 2 1 4 -43 4 -44 0 -61 -2 -37 -4z"/>
</g>
</svg>
