<?xml version="1.0" standalone="no"?>
<!DOCTYPE svg PUBLIC "-//W3C//DTD SVG 20010904//EN"
 "http://www.w3.org/TR/2001/REC-SVG-20010904/DTD/svg10.dtd">
<svg version="1.0" xmlns="http://www.w3.org/2000/svg"
 width="1230.000000pt" height="1280.000000pt" viewBox="0 0 1230.000000 1280.000000"
 preserveAspectRatio="xMidYMid meet">
<g transform="translate(0.000000,1280.000000) scale(0.100000,-0.100000)"
fill="#000000" stroke="none">
<path d="M7404 12743 c119 -385 257 -909 355 -1353 563 -2549 556 -5212 -20
-7775 -47 -208 -149 -615 -203 -807 -28 -103 -36 -98 101 -68 703 153 1549
186 2288 89 432 -56 879 -160 1290 -299 82 -27 152 -47 156 -42 8 8 51 304 73
507 53 477 70 862 63 1385 -8 527 -34 883 -103 1375 -360 2585 -1656 4974
-3640 6710 -179 157 -347 295 -358 295 -4 0 -5 -8 -2 -17z"/>
<path d="M6436 12200 c-2 -8 -36 -133 -75 -277 -664 -2465 -1859 -4759 -3510
-6738 -713 -855 -1576 -1708 -2421 -2392 -87 -70 -156 -130 -154 -132 1 -2 54
21 116 50 703 327 1432 523 2248 606 252 25 979 25 1230 0 829 -84 1557 -281
2262 -611 l98 -45 15 22 c8 12 54 106 103 207 486 1006 810 2060 971 3155 136
925 154 1897 51 2825 -118 1056 -391 2100 -801 3063 -107 249 -126 287 -133
267z"/>
<path d="M12065 2394 c-3301 -860 -6970 -1120 -10425 -738 -484 53 -1305 164
-1480 199 l-25 5 4 -372 c3 -387 -4 -554 -40 -873 -18 -158 -66 -475 -84 -545
-5 -22 0 -28 37 -47 36 -19 50 -21 83 -14 81 19 899 88 1480 126 1975 128
3845 138 5785 29 293 -16 799 -49 985 -64 66 -5 188 -15 270 -21 l150 -12 160
73 c243 109 645 315 895 458 772 440 1449 940 2115 1562 223 209 294 280 275
279 -8 0 -91 -21 -185 -45z"/>
</g>
</svg>
